<?xml version="1.0" encoding="UTF-8" standalone="no"?>
<!-- Created with Inkscape (http://www.inkscape.org/) -->

<svg
   width="34.66042mm"
   height="80.8302075mm"
   viewBox="0 0 138.64168 323.32083"
   version="1.1"
   id="svg21236"
   sodipodi:docname="crate-graph3.svg"
   inkscape:version="1.1.2 (0a00cf5339, 2022-02-04)"
   xmlns:inkscape="http://www.inkscape.org/namespaces/inkscape"
   xmlns:sodipodi="http://sodipodi.sourceforge.net/DTD/sodipodi-0.dtd"
   xmlns="http://www.w3.org/2000/svg"
   xmlns:svg="http://www.w3.org/2000/svg">
  <sodipodi:namedview
     id="namedview21238"
     pagecolor="#ffffff"
     bordercolor="#666666"
     borderopacity="1.0"
     inkscape:pageshadow="2"
     inkscape:pageopacity="0.0"
     inkscape:pagecheckerboard="0"
     inkscape:document-units="mm"
     showgrid="false"
     inkscape:zoom="0.77771465"
     inkscape:cx="456.46562"
     inkscape:cy="666.05406"
     inkscape:window-width="2560"
     inkscape:window-height="1371"
     inkscape:window-x="0"
     inkscape:window-y="32"
     inkscape:window-maximized="1"
     inkscape:current-layer="layer1"
     fit-margin-top="0"
     fit-margin-left="0"
     fit-margin-right="0"
     fit-margin-bottom="0" />
  <defs
     id="defs21233" />
  <g
     inkscape:label="Layer 1"
     inkscape:groupmode="layer"
     id="layer1"
     transform="translate(-37.882407,27.222306)">
    <path
       style="fill:#eaeaea;stroke-width:0.264583"
       d="m 74.659492,295.83394 c 0,-0.14925 0.749651,-0.26459 1.719791,-0.26459 0.97014,0 1.719792,0.11534 1.719792,0.26459 0,0.14925 -0.749652,0.26458 -1.719792,0.26458 -0.97014,0 -1.719791,-0.11533 -1.719791,-0.26458 z m 5.820833,0 c 0,-0.14925 0.749652,-0.26459 1.719792,-0.26459 0.970139,0 1.719791,0.11534 1.719791,0.26459 0,0.14925 -0.749652,0.26458 -1.719791,0.26458 -0.97014,0 -1.719792,-0.11533 -1.719792,-0.26458 z m 5.820833,0 c 0,-0.14925 0.749652,-0.26459 1.719792,-0.26459 0.97014,0 1.719792,0.11534 1.719792,0.26459 0,0.14925 -0.749652,0.26458 -1.719792,0.26458 -0.97014,0 -1.719792,-0.11533 -1.719792,-0.26458 z m 5.820834,0 c 0,-0.14925 0.749652,-0.26459 1.719792,-0.26459 0.970139,0 1.719791,0.11534 1.719791,0.26459 0,0.14925 -0.749652,0.26458 -1.719791,0.26458 -0.97014,0 -1.719792,-0.11533 -1.719792,-0.26458 z m 6.085417,0 c 0,-0.14701 0.705556,-0.26459 1.5875,-0.26459 0.881941,0 1.587501,0.11758 1.587501,0.26459 0,0.147 -0.70556,0.26458 -1.587501,0.26458 -0.881944,0 -1.5875,-0.11758 -1.5875,-0.26458 z m 5.820831,0 c 0,-0.14701 0.70556,-0.26459 1.5875,-0.26459 0.88195,0 1.5875,0.11758 1.5875,0.26459 0,0.147 -0.70555,0.26458 -1.5875,0.26458 -0.88194,0 -1.5875,-0.11758 -1.5875,-0.26458 z m -29.897915,-3.70417 c 0,-1.23473 0.08819,-1.5875 0.396875,-1.5875 0.308681,0 0.396875,0.35277 0.396875,1.5875 0,1.23473 -0.08819,1.5875 -0.396875,1.5875 -0.308682,0 -0.396875,-0.35277 -0.396875,-1.5875 z m 32.279165,-0.79375 c 0,-1.23473 0.0882,-1.5875 0.39688,-1.5875 0.30868,0 0.39687,0.35277 0.39687,1.5875 0,1.23473 -0.0882,1.5875 -0.39687,1.5875 -0.30868,0 -0.39688,-0.35277 -0.39688,-1.5875 z m -32.279165,-5.18141 c 0,-1.27532 0.08858,-1.7126 0.330729,-1.63267 0.204782,0.0676 0.360728,0.73094 0.409501,1.74186 0.06423,1.33114 0.0031,1.63264 -0.330729,1.63264 -0.328144,0 -0.409501,-0.34605 -0.409501,-1.74183 z m 32.279165,-0.63942 c 0,-1.23473 0.0882,-1.5875 0.39688,-1.5875 0.30868,0 0.39687,0.35277 0.39687,1.5875 0,1.23473 -0.0882,1.5875 -0.39687,1.5875 -0.30868,0 -0.39688,-0.35277 -0.39688,-1.5875 z m -32.279165,-5.15938 c 0,-1.29352 0.08819,-1.7345 0.330729,-1.65364 0.214186,0.0714 0.330729,0.6541 0.330729,1.65364 0,0.99955 -0.116543,1.58226 -0.330729,1.65365 -0.242536,0.0808 -0.330729,-0.36013 -0.330729,-1.65365 z m 32.279165,-0.79375 c 0,-1.35231 0.0848,-1.71979 0.39688,-1.71979 0.31207,0 0.39687,0.36748 0.39687,1.71979 0,1.35231 -0.0848,1.71979 -0.39687,1.71979 -0.31208,0 -0.39688,-0.36748 -0.39688,-1.71979 z m -24.224997,-0.0661 c 0.08378,-0.25466 1.019852,-2.72521 2.080157,-5.49011 1.870702,-4.87812 1.951119,-5.02941 2.71371,-5.10534 l 0.785876,-0.0783 2.275255,5.56837 2.275253,5.56837 h -0.854673 c -0.804477,0 -0.888881,-0.0938 -1.437043,-1.59719 l -0.582366,-1.59721 -2.401446,0.0759 -2.401448,0.0758 -0.54252,1.52135 c -0.489707,1.37327 -0.616532,1.52136 -1.302801,1.52136 -0.605718,0 -0.729313,-0.0941 -0.607954,-0.46302 z m 5.940976,-6.21771 c -0.431509,-1.20055 -0.850099,-2.36141 -0.930201,-2.57969 -0.08195,-0.22331 -0.540621,0.70236 -1.048811,2.11667 -0.496748,1.38245 -0.90328,2.5433 -0.903404,2.57968 -1.25e-4,0.0364 0.824894,0.0661 1.833374,0.0661 h 1.8336 z m -13.995144,1.27881 c 0,-1.39578 0.08136,-1.74183 0.409501,-1.74183 0.33388,0 0.394954,0.30149 0.330729,1.63264 -0.04877,1.01092 -0.204719,1.67423 -0.409501,1.74185 -0.242149,0.0799 -0.330729,-0.35734 -0.330729,-1.63266 z m 32.279165,-0.81579 c 0,-1.35231 0.0848,-1.71979 0.39688,-1.71979 0.31207,0 0.39687,0.36748 0.39687,1.71979 0,1.35231 -0.0848,1.71979 -0.39687,1.71979 -0.31208,0 -0.39688,-0.36748 -0.39688,-1.71979 z m -32.279165,-5.15938 c 0,-1.23473 0.08819,-1.5875 0.396875,-1.5875 0.308681,0 0.396875,0.35277 0.396875,1.5875 0,1.23474 -0.08819,1.5875 -0.396875,1.5875 -0.308682,0 -0.396875,-0.35276 -0.396875,-1.5875 z m 32.279165,-0.66145 c 0,-1.35232 0.0848,-1.7198 0.39688,-1.7198 0.31207,0 0.39687,0.36748 0.39687,1.7198 0,1.35231 -0.0848,1.71979 -0.39687,1.71979 -0.31208,0 -0.39688,-0.36748 -0.39688,-1.71979 z m -32.279165,-5.15938 c 0,-1.23473 0.08819,-1.5875 0.396875,-1.5875 0.308681,0 0.396875,0.35277 0.396875,1.5875 0,1.23473 -0.08819,1.5875 -0.396875,1.5875 -0.308682,0 -0.396875,-0.35277 -0.396875,-1.5875 z m 32.279165,-0.66146 c 0,-1.35231 0.0848,-1.71979 0.39688,-1.71979 0.31207,0 0.39687,0.36748 0.39687,1.71979 0,1.35231 -0.0848,1.71979 -0.39687,1.71979 -0.31208,0 -0.39688,-0.36748 -0.39688,-1.71979 z m -32.279165,-4.23333 c 0,-0.64257 0.05292,-0.66146 1.852083,-0.66146 1.469909,0 1.852084,0.0819 1.852084,0.39688 0,0.30466 -0.33808,0.39687 -1.455209,0.39687 -0.800364,0 -1.455208,0.11906 -1.455208,0.26458 0,0.14553 -0.178594,0.26459 -0.396875,0.26459 -0.246944,0 -0.396875,-0.24987 -0.396875,-0.66146 z m 6.085417,-0.26458 c 0,-0.31208 0.367477,-0.39688 1.719791,-0.39688 1.352315,0 1.719792,0.0848 1.719792,0.39688 0,0.31207 -0.367477,0.39687 -1.719792,0.39687 -1.352314,0 -1.719791,-0.0848 -1.719791,-0.39687 z m 5.820833,0.0127 c 0,-0.28567 0.416766,-0.40445 1.62447,-0.46302 l 1.624471,-0.0788 -15.272992,-11.74414 -15.272993,-11.74412 -0.555985,0.55599 -0.555985,0.55598 -1.39909,-2.17331 c -0.7695,-1.19532 -1.402159,-2.25692 -1.40591,-2.3591 -0.0038,-0.10218 0.558727,-0.0116 1.249951,0.20139 0.691224,0.21294 1.890406,0.57537 2.664846,0.80539 1.345608,0.39968 1.388423,0.43995 0.965036,0.90779 -0.24367,0.26925 -0.401055,0.61138 -0.349742,0.76028 0.0964,0.27973 30.929247,24.09111 31.203716,24.0978 0.130463,0.003 26.388852,-22.38511 27.469472,-23.42087 0.31874,-0.30551 0.31312,-0.44532 -0.0395,-0.98351 -0.41042,-0.62639 -0.40788,-0.62861 1.61282,-1.40493 l 2.02389,-0.77764 -1.52135,-0.0794 c -1.11618,-0.0582 -1.52135,-0.18153 -1.52135,-0.46302 0,-0.29582 0.39378,-0.38367 1.71979,-0.38367 1.33598,0 1.71979,0.0867 1.71979,0.38857 0,0.25372 0.1528,0.32994 0.44028,0.21962 0.24215,-0.0929 0.37717,-0.0594 0.30003,0.0744 -0.0771,0.13387 -0.70583,1.2316 -1.39708,2.43939 -1.16265,2.03143 -1.29078,2.16526 -1.70992,1.78594 -0.24921,-0.22553 -0.54381,-0.41005 -0.65469,-0.41005 -0.11087,0 -6.39861,5.31376 -13.97275,11.80835 -7.574146,6.4946 -13.993363,11.86646 -14.264932,11.93747 -0.271565,0.071 -0.671719,-0.0185 -0.889225,-0.19907 -0.32326,-0.26829 -0.395464,-0.24985 -0.395464,0.10107 0,0.35192 -0.309793,0.42926 -1.719792,0.42926 -1.3272,0 -1.719792,-0.0877 -1.719792,-0.38425 z m 6.085417,-0.0127 c 0,-0.30869 0.352777,-0.39688 1.5875,-0.39688 1.234723,0 1.5875,0.0882 1.5875,0.39688 0,0.30869 -0.352777,0.39687 -1.5875,0.39687 -1.234723,0 -1.5875,-0.0882 -1.5875,-0.39687 z m 5.820833,0 c 0,-0.30869 0.352777,-0.39688 1.5875,-0.39688 1.234725,0 1.587505,0.0882 1.587505,0.39688 0,0.30869 -0.35278,0.39687 -1.587505,0.39687 -1.234723,0 -1.5875,-0.0882 -1.5875,-0.39687 z m 5.820835,0 c 0,-0.34984 0.28325,-0.40863 1.65364,-0.34335 0.90951,0.0433 1.65365,0.19783 1.65365,0.34335 0,0.14552 -0.74414,0.30003 -1.65365,0.34335 -1.37039,0.0653 -1.65364,0.006 -1.65364,-0.34335 z M 38.676157,229.8204 c 0,-0.30868 0.352778,-0.39688 1.587501,-0.39688 1.234722,0 1.5875,0.0882 1.5875,0.39688 0,0.30868 -0.352778,0.39687 -1.5875,0.39687 -1.234723,0 -1.587501,-0.0882 -1.587501,-0.39687 z m 5.820834,0 c 0,-0.31208 0.367477,-0.39688 1.719792,-0.39688 1.352314,0 1.719791,0.0848 1.719791,0.39688 0,0.31207 -0.367477,0.39687 -1.719791,0.39687 -1.352315,0 -1.719792,-0.0848 -1.719792,-0.39687 z m 5.820833,0 c 0,-0.31208 0.367477,-0.39688 1.719792,-0.39688 1.352315,0 1.719792,0.0848 1.719792,0.39688 0,0.31207 -0.367477,0.39687 -1.719792,0.39687 -1.352315,0 -1.719792,-0.0848 -1.719792,-0.39687 z m 5.820834,0 c 0,-0.31208 0.367477,-0.39688 1.719792,-0.39688 1.352314,0 1.719791,0.0848 1.719791,0.39688 0,0.31207 -0.367477,0.39687 -1.719791,0.39687 -1.352315,0 -1.719792,-0.0848 -1.719792,-0.39687 z m 5.820833,0 c 0,-0.31208 0.367477,-0.39688 1.719792,-0.39688 1.352315,0 1.719792,0.0848 1.719792,0.39688 0,0.31207 -0.367477,0.39687 -1.719792,0.39687 -1.352315,0 -1.719792,-0.0848 -1.719792,-0.39687 z m 5.820834,0.0126 c 0,-0.32814 0.346059,-0.4095 1.741839,-0.4095 1.275321,0 1.712595,0.0886 1.632646,0.33073 -0.06761,0.20478 -0.730933,0.36073 -1.741839,0.4095 -1.331154,0.0642 -1.632646,0.003 -1.632646,-0.33073 z m 39.158335,-0.0126 c 0,-0.31208 0.36748,-0.39688 1.71979,-0.39688 1.35232,0 1.71979,0.0848 1.71979,0.39688 0,0.31207 -0.36747,0.39687 -1.71979,0.39687 -1.35231,0 -1.71979,-0.0848 -1.71979,-0.39687 z m 5.82083,0 c 0,-0.31208 0.36748,-0.39688 1.71979,-0.39688 1.35232,0 1.7198,0.0848 1.7198,0.39688 0,0.31207 -0.36748,0.39687 -1.7198,0.39687 -1.35231,0 -1.71979,-0.0848 -1.71979,-0.39687 z m 11.90625,0 c 0,-0.30868 0.35278,-0.39688 1.5875,-0.39688 1.23473,0 1.5875,0.0882 1.5875,0.39688 0,0.30868 -0.35277,0.39687 -1.5875,0.39687 -1.23472,0 -1.5875,-0.0882 -1.5875,-0.39687 z m 5.82084,0 c 0,-0.30868 0.35277,-0.39688 1.5875,-0.39688 1.23472,0 1.5875,0.0882 1.5875,0.39688 0,0.30868 -0.35278,0.39687 -1.5875,0.39687 -1.23473,0 -1.5875,-0.0882 -1.5875,-0.39687 z m 5.82083,0 c 0,-0.30868 0.35278,-0.39688 1.5875,-0.39688 1.23472,0 1.5875,0.0882 1.5875,0.39688 0,0.30868 -0.35278,0.39687 -1.5875,0.39687 -1.23472,0 -1.5875,-0.0882 -1.5875,-0.39687 z m -98.425003,-3.83646 c 0,-1.41111 0.0588,-1.5875 0.529167,-1.5875 0.470371,0 0.529167,0.17639 0.529167,1.5875 0,1.41111 -0.0588,1.5875 -0.529167,1.5875 -0.47037,0 -0.529167,-0.17639 -0.529167,-1.5875 z m 68.527083,0 c 0,-1.23472 0.0882,-1.5875 0.39688,-1.5875 0.30868,0 0.39687,0.35278 0.39687,1.5875 0,1.23472 -0.0882,1.5875 -0.39687,1.5875 -0.30868,0 -0.39688,-0.35278 -0.39688,-1.5875 z m -35.983332,-0.79375 c 0,-1.23472 0.08819,-1.5875 0.396875,-1.5875 0.308682,0 0.396875,0.35278 0.396875,1.5875 0,1.23472 -0.08819,1.5875 -0.396875,1.5875 -0.308681,0 -0.396875,-0.35278 -0.396875,-1.5875 z m 68.262502,0 c 0,-1.23472 0.0882,-1.5875 0.39687,-1.5875 0.30869,0 0.39688,0.35278 0.39688,1.5875 0,1.23472 -0.0882,1.5875 -0.39688,1.5875 -0.30868,0 -0.39687,-0.35278 -0.39687,-1.5875 z M 37.935928,220.09696 c 0.05995,-1.25851 0.173604,-1.65365 0.475646,-1.65365 0.302042,0 0.415697,0.39514 0.475646,1.65365 0.07276,1.52742 0.03645,1.65365 -0.475646,1.65365 -0.512098,0 -0.548404,-0.12623 -0.475646,-1.65365 z m 68.473562,-0.0661 c 0,-1.35231 0.0848,-1.71979 0.39688,-1.71979 0.31207,0 0.39687,0.36748 0.39687,1.71979 0,1.35232 -0.0848,1.7198 -0.39687,1.7198 -0.31208,0 -0.39688,-0.36748 -0.39688,-1.7198 z m -35.983332,-0.66145 c 0,-1.23473 0.08819,-1.5875 0.396875,-1.5875 0.308682,0 0.396875,0.35277 0.396875,1.5875 0,1.23472 -0.08819,1.5875 -0.396875,1.5875 -0.308681,0 -0.396875,-0.35278 -0.396875,-1.5875 z m 68.262502,0 c 0,-1.23473 0.0882,-1.5875 0.39687,-1.5875 0.30869,0 0.39688,0.35277 0.39688,1.5875 0,1.23472 -0.0882,1.5875 -0.39688,1.5875 -0.30868,0 -0.39687,-0.35278 -0.39687,-1.5875 z M 37.999013,215.58743 c -0.08154,-0.21249 -0.111369,-0.96654 -0.06629,-1.67565 0.05933,-0.93322 0.191579,-1.2893 0.478846,-1.2893 0.517686,0 0.580466,3.06971 0.06629,3.2411 -0.181824,0.0606 -0.397305,-0.0637 -0.478846,-0.27615 z m 68.410477,-1.37745 c 0,-1.35231 0.0848,-1.71979 0.39688,-1.71979 0.31207,0 0.39687,0.36748 0.39687,1.71979 0,1.35231 -0.0848,1.71979 -0.39687,1.71979 -0.31208,0 -0.39688,-0.36748 -0.39688,-1.71979 z m -35.983332,-0.8158 c 0,-1.27532 0.08858,-1.71259 0.330729,-1.63264 0.204783,0.0676 0.360728,0.73093 0.409501,1.74184 0.06423,1.33115 0.0031,1.63264 -0.330729,1.63264 -0.328144,0 -0.409501,-0.34606 -0.409501,-1.74184 z m 68.262502,0.0221 c 0,-1.35231 0.0848,-1.71979 0.39687,-1.71979 0.31208,0 0.39688,0.36748 0.39688,1.71979 0,1.35231 -0.0848,1.71979 -0.39688,1.71979 -0.31207,0 -0.39687,-0.36748 -0.39687,-1.71979 z m -20.47364,0.38777 c -1.94264,-0.58165 -3.18013,-3.00889 -3.03178,-5.9466 0.16873,-3.34139 2.0012,-5.13923 5.24917,-5.14999 1.71274,-0.006 2.91621,0.61431 3.70559,1.90901 0.28917,0.47427 0.52621,0.9387 0.52675,1.03206 0.002,0.33926 -1.43848,0.53893 -1.54665,0.21439 -0.0582,-0.17449 -0.43851,-0.68949 -0.8452,-1.14445 -0.64744,-0.72427 -0.90349,-0.82485 -2.05787,-0.80841 -2.42162,0.0345 -3.57425,1.48884 -3.56111,4.49333 0.0121,2.77322 1.28657,4.35143 3.51391,4.35143 1.44361,0 2.39247,-0.60166 2.9067,-1.84311 0.32754,-0.79077 0.87301,-0.99859 1.52862,-0.58242 0.25773,0.1636 0.19394,0.47758 -0.27854,1.37106 -1.048,1.9818 -3.59157,2.85763 -6.10959,2.1037 z m -71.072196,-5.54714 v -5.55625 l 2.315105,0.002 c 2.823942,0.002 4.105699,0.33017 4.816611,1.23395 0.761048,0.96751 0.725019,2.57356 -0.0757,3.37428 l -0.616899,0.6169 0.757979,0.62784 c 1.529326,1.26677 1.388179,3.52462 -0.290913,4.65358 -0.805039,0.54117 -1.21302,0.60437 -3.902605,0.60437 h -3.003581 z m 6.225002,3.69731 c 0.783943,-0.73648 0.83484,-1.56348 0.148395,-2.41121 -0.447053,-0.55208 -0.769574,-0.63543 -2.778125,-0.71792 l -2.272355,-0.0933 v 1.83514 c 0,1.00932 0.0893,1.92698 0.198438,2.03923 0.10914,0.11225 1.064922,0.14977 2.12396,0.0834 1.547861,-0.097 2.053827,-0.24127 2.579687,-0.73529 z m -0.404168,-5.02023 c 0.612768,-0.61277 0.68379,-1.53948 0.171659,-2.23987 -0.281327,-0.38473 -0.816931,-0.51551 -2.513542,-0.61373 l -2.156034,-0.12481 v 1.75379 1.75379 h 1.984375 c 1.631597,0 2.078449,-0.0941 2.513542,-0.52917 z m -14.899349,3.00412 c -0.100046,-0.10004 -0.181902,-0.87643 -0.181902,-1.7253 0,-1.379 0.05771,-1.5434 0.541792,-1.5434 0.495977,0 0.535131,0.13806 0.463021,1.63264 -0.07251,1.50282 -0.368227,2.09075 -0.822911,1.63606 z m 68.345181,-1.54891 c 0,-1.35232 0.0848,-1.71979 0.39688,-1.71979 0.31207,0 0.39687,0.36747 0.39687,1.71979 0,1.35231 -0.0848,1.71979 -0.39687,1.71979 -0.31208,0 -0.39688,-0.36748 -0.39688,-1.71979 z m -35.983332,-0.7938 c 0,-1.29352 0.08819,-1.73449 0.330729,-1.65365 0.214186,0.0714 0.330729,0.65411 0.330729,1.65365 0,0.99953 -0.116543,1.58225 -0.330729,1.65364 -0.242535,0.0808 -0.330729,-0.36012 -0.330729,-1.65364 z m 68.262502,0 c 0,-1.35232 0.0848,-1.71979 0.39687,-1.71979 0.31208,0 0.39688,0.36747 0.39688,1.71979 0,1.35231 -0.0848,1.71979 -0.39688,1.71979 -0.31207,0 -0.39687,-0.36748 -0.39687,-1.71979 z M 37.882407,202.43602 c 0,-1.41111 0.0588,-1.5875 0.529167,-1.5875 0.470371,0 0.529167,0.17639 0.529167,1.5875 0,1.41111 -0.0588,1.5875 -0.529167,1.5875 -0.47037,0 -0.529167,-0.17639 -0.529167,-1.5875 z m 68.527083,0 c 0,-1.23472 0.0882,-1.5875 0.39688,-1.5875 0.30868,0 0.39687,0.35278 0.39687,1.5875 0,1.23473 -0.0882,1.5875 -0.39687,1.5875 -0.30868,0 -0.39688,-0.35277 -0.39688,-1.5875 z m -35.983332,-0.63941 c 0,-1.39578 0.08136,-1.74184 0.409501,-1.74184 0.33388,0 0.394954,0.3015 0.330729,1.63265 -0.04877,1.0109 -0.204718,1.67423 -0.409501,1.74184 -0.242149,0.0799 -0.330729,-0.35733 -0.330729,-1.63265 z m 68.262502,-0.022 c 0,-1.35231 0.0848,-1.71979 0.39687,-1.71979 0.31208,0 0.39688,0.36748 0.39688,1.71979 0,1.35232 -0.0848,1.7198 -0.39688,1.7198 -0.31207,0 -0.39687,-0.36748 -0.39687,-1.7198 z M 37.882407,196.61519 c 0,-1.41111 0.0588,-1.5875 0.529167,-1.5875 0.470371,0 0.529167,0.17639 0.529167,1.5875 0,1.41111 -0.0588,1.5875 -0.529167,1.5875 -0.47037,0 -0.529167,-0.17639 -0.529167,-1.5875 z m 68.527083,0 c 0,-1.23472 0.0882,-1.5875 0.39688,-1.5875 0.30868,0 0.39687,0.35278 0.39687,1.5875 0,1.23472 -0.0882,1.5875 -0.39687,1.5875 -0.30868,0 -0.39688,-0.35278 -0.39688,-1.5875 z m -35.983332,-0.79375 c 0,-1.23472 0.08819,-1.5875 0.396875,-1.5875 0.308682,0 0.396875,0.35278 0.396875,1.5875 0,1.23472 -0.08819,1.5875 -0.396875,1.5875 -0.308681,0 -0.396875,-0.35278 -0.396875,-1.5875 z m 68.262502,0 c 0,-1.23472 0.0882,-1.5875 0.39687,-1.5875 0.30869,0 0.39688,0.35278 0.39688,1.5875 0,1.23472 -0.0882,1.5875 -0.39688,1.5875 -0.30868,0 -0.39687,-0.35278 -0.39687,-1.5875 z m -100.758509,-4.0349 c 0.07758,-0.54627 0.242566,-0.60171 2.002777,-0.67305 1.586467,-0.0643 1.91823,-0.007 1.91823,0.33073 0,0.31873 -0.319726,0.40847 -1.455209,0.40847 -0.800364,0 -1.455208,0.11906 -1.455208,0.26458 0,0.14552 -0.246406,0.26459 -0.547569,0.26459 -0.416511,0 -0.527332,-0.14249 -0.463021,-0.59532 z m 68.479339,-0.0661 c 0,-0.64256 0.0529,-0.66146 1.85209,-0.66146 1.4699,0 1.85208,0.0819 1.85208,0.39687 0,0.30468 -0.33808,0.39688 -1.45521,0.39688 -0.80036,0 -1.45521,0.11906 -1.45521,0.26458 0,0.14552 -0.17859,0.26459 -0.39687,0.26459 -0.24695,0 -0.39688,-0.24989 -0.39688,-0.66146 z m -62.177082,-0.26459 c 0,-0.31207 0.367476,-0.39687 1.719791,-0.39687 1.352315,0 1.719792,0.0848 1.719792,0.39687 0,0.31208 -0.367477,0.39688 -1.719792,0.39688 -1.352315,0 -1.719791,-0.0848 -1.719791,-0.39688 z m 5.820833,0 c 0,-0.31207 0.367477,-0.39687 1.719792,-0.39687 1.352315,0 1.719791,0.0848 1.719791,0.39687 0,0.31208 -0.367476,0.39688 -1.719791,0.39688 -1.352315,0 -1.719792,-0.0848 -1.719792,-0.39688 z m 5.820834,0 c 0,-0.31207 0.367476,-0.39687 1.719791,-0.39687 1.352315,0 1.719792,0.0848 1.719792,0.39687 0,0.31208 -0.367477,0.39688 -1.719792,0.39688 -1.352315,0 -1.719791,-0.0848 -1.719791,-0.39688 z m 6.085416,0 c 0,-0.30868 0.352777,-0.39687 1.5875,-0.39687 1.234723,0 1.5875,0.0882 1.5875,0.39687 0,0.30869 -0.352777,0.39688 -1.5875,0.39688 -1.234723,0 -1.5875,-0.0882 -1.5875,-0.39688 z m 5.820834,0 c 0,-0.34982 0.283249,-0.40863 1.653646,-0.34335 0.909505,0.0433 1.653645,0.19783 1.653645,0.34335 0,0.14552 -0.74414,0.30003 -1.653645,0.34336 -1.370397,0.0653 -1.653646,0.006 -1.653646,-0.34336 z m 44.714585,0 c 0,-0.31207 0.36748,-0.39687 1.71979,-0.39687 1.35232,0 1.71979,0.0848 1.71979,0.39687 0,0.31208 -0.36747,0.39688 -1.71979,0.39688 -1.35231,0 -1.71979,-0.0848 -1.71979,-0.39688 z m 6.08542,0 c 0,-0.30868 0.35277,-0.39687 1.5875,-0.39687 1.23472,0 1.5875,0.0882 1.5875,0.39687 0,0.30869 -0.35278,0.39688 -1.5875,0.39688 -1.23473,0 -1.5875,-0.0882 -1.5875,-0.39688 z m 5.82083,0 c 0,-0.30868 0.35278,-0.39687 1.5875,-0.39687 1.23472,0 1.5875,0.0882 1.5875,0.39687 0,0.30869 -0.35278,0.39688 -1.5875,0.39688 -1.23472,0 -1.5875,-0.0882 -1.5875,-0.39688 z m 5.82083,0 c 0,-0.30868 0.35278,-0.39687 1.5875,-0.39687 1.23473,0 1.5875,0.0882 1.5875,0.39687 0,0.30869 -0.35277,0.39688 -1.5875,0.39688 -1.23472,0 -1.5875,-0.0882 -1.5875,-0.39688 z m 5.82084,0.0126 c 0,-0.32813 0.34606,-0.40949 1.74184,-0.40949 1.27532,0 1.71259,0.0886 1.63264,0.33073 -0.0676,0.20478 -0.73093,0.36073 -1.74184,0.4095 -1.33115,0.0642 -1.63264,0.003 -1.63264,-0.33073 z m -81.590487,-0.0673 c -0.102855,-0.10286 7.044704,-7.41946 15.883468,-16.25911 15.905435,-15.90704 16.065458,-16.07764 15.581948,-16.61191 -0.483828,-0.53462 -0.469705,-0.54857 1.468792,-1.45073 l 1.957316,-0.91092 -1.521354,-0.0172 c -1.16826,-0.0132 -1.521355,-0.10935 -1.521355,-0.41412 0,-0.31207 0.367478,-0.39687 1.719792,-0.39687 1.08095,0 1.719792,0.1088 1.719792,0.29289 0,0.16109 0.1695,0.22785 0.376663,0.14835 0.436483,-0.16749 0.122989,0.69624 -1.217649,3.35485 -0.754481,1.49621 -0.796875,1.53201 -1.287923,1.08762 -0.49144,-0.44475 -0.948087,-0.0252 -14.204532,13.05177 -7.533222,7.43121 -14.765849,14.59155 -16.072502,15.91187 -2.412844,2.43806 -2.551482,2.54453 -2.882456,2.21356 z m 53.809237,-15.56794 c -7.78537,-8.64867 -14.264901,-15.72612 -14.398963,-15.72766 -0.134062,-0.002 -0.438976,0.17387 -0.677582,0.3898 -0.394859,0.35734 -0.522317,0.1759 -1.41873,-2.01963 -0.541695,-1.32674 -0.930199,-2.46695 -0.863344,-2.53381 0.06685,-0.0668 1.150128,0.43912 2.407272,1.12439 l 2.28572,1.24595 -0.518319,0.56452 -0.518322,0.56451 13.739538,15.21354 c 7.55674,8.36745 13.94406,15.41892 14.19404,15.66994 0.43001,0.43179 1.2818,-0.343 15.79962,-14.37111 8.43981,-8.15513 15.81459,-15.29088 16.3884,-15.85722 1.02581,-1.01247 1.03507,-1.03879 0.55283,-1.57166 -0.26974,-0.29807 -0.44157,-0.58585 -0.38183,-0.63951 0.0598,-0.0537 0.94206,-0.46607 1.96071,-0.91646 l 1.85208,-0.81888 -1.52135,-0.008 c -1.17239,-0.006 -1.52136,-0.099 -1.52136,-0.40484 0,-0.31208 0.36748,-0.39688 1.71979,-0.39688 1.08095,0 1.7198,0.1088 1.7198,0.29289 0,0.16109 0.17149,0.22709 0.38108,0.14666 0.23314,-0.0895 -0.074,0.7887 -0.79105,2.26205 -0.64468,1.32456 -1.23215,2.4683 -1.3055,2.54165 -0.0734,0.0734 -0.37715,-0.0872 -0.67511,-0.3569 -0.53545,-0.48457 -0.57616,-0.45629 -3.50735,2.43587 -11.27835,11.12819 -29.92759,28.92311 -30.29863,28.91065 -0.24668,-0.008 -6.81334,-7.08596 -14.60344,-15.7399 z M 74.659492,155.74969 c 0,-0.32814 0.346059,-0.4095 1.741839,-0.4095 1.275321,0 1.712595,0.0886 1.632646,0.33073 -0.06761,0.20478 -0.730933,0.36073 -1.74184,0.4095 -1.331153,0.0642 -1.632645,0.003 -1.632645,-0.33073 z m 5.820833,-0.0126 c 0,-0.31207 0.367477,-0.39687 1.719792,-0.39687 1.352314,0 1.719791,0.0848 1.719791,0.39687 0,0.31208 -0.367477,0.39688 -1.719791,0.39688 -1.352315,0 -1.719792,-0.0848 -1.719792,-0.39688 z m 11.818057,0.22049 c -0.453187,-0.45318 -0.04275,-0.61736 1.543402,-0.61736 1.352314,0 1.719791,0.0848 1.719791,0.39687 0,0.30742 -0.347877,0.39688 -1.543402,0.39688 -0.848873,0 -1.622779,-0.0794 -1.719791,-0.17639 z m 5.909027,-0.22049 c 0,-0.30868 0.352777,-0.39687 1.5875,-0.39687 1.234721,0 1.587501,0.0882 1.587501,0.39687 0,0.30869 -0.35278,0.39688 -1.587501,0.39688 -1.234723,0 -1.5875,-0.0882 -1.5875,-0.39688 z m 5.820831,0.037 c 0,-0.24325 0.49011,-0.41044 1.51251,-0.51596 1.66418,-0.17176 1.8009,-0.13108 1.57119,0.46753 -0.21066,0.54898 -3.0837,0.5941 -3.0837,0.0484 z m 39.95209,-0.037 c 0,-0.30868 0.35277,-0.39687 1.5875,-0.39687 1.23472,0 1.5875,0.0882 1.5875,0.39687 0,0.30869 -0.35278,0.39688 -1.5875,0.39688 -1.23473,0 -1.5875,-0.0882 -1.5875,-0.39688 z m 5.82083,0.0126 c 0,-0.32814 0.34606,-0.4095 1.74184,-0.4095 1.27532,0 1.71259,0.0886 1.63265,0.33073 -0.0676,0.20478 -0.73094,0.36073 -1.74184,0.4095 -1.33116,0.0642 -1.63265,0.003 -1.63265,-0.33073 z m 11.64167,-0.0126 c 0,-0.31207 0.36747,-0.39687 1.71979,-0.39687 1.35231,0 1.71979,0.0848 1.71979,0.39687 0,0.31208 -0.36748,0.39688 -1.71979,0.39688 -1.35232,0 -1.71979,-0.0848 -1.71979,-0.39688 z m 5.99722,0.22049 c -0.45319,-0.45318 -0.0428,-0.61736 1.5434,-0.61736 1.35232,0 1.71979,0.0848 1.71979,0.39687 0,0.30742 -0.34787,0.39688 -1.5434,0.39688 -0.84887,0 -1.62278,-0.0794 -1.71979,-0.17639 z m 5.76586,-0.1058 c -0.24344,-0.39389 -0.17576,-0.42015 1.50959,-0.58587 1.60685,-0.158 1.85238,-0.0831 1.62975,0.49705 -0.17184,0.44781 -2.87029,0.52416 -3.13934,0.0888 z m -99.075585,-4.21573 c 0,-1.23472 0.08819,-1.5875 0.396875,-1.5875 0.308681,0 0.396875,0.35278 0.396875,1.5875 0,1.23473 -0.08819,1.5875 -0.396875,1.5875 -0.308682,0 -0.396875,-0.35277 -0.396875,-1.5875 z m 69.056255,0 c 0,-1.41111 0.0588,-1.5875 0.52916,-1.5875 0.47037,0 0.52917,0.17639 0.52917,1.5875 0,1.41111 -0.0588,1.5875 -0.52917,1.5875 -0.47037,0 -0.52916,-0.17639 -0.52916,-1.5875 z m -36.77709,-0.66146 c 0,-1.35231 0.0848,-1.71979 0.39688,-1.71979 0.31207,0 0.39687,0.36748 0.39687,1.71979 0,1.35232 -0.0848,1.7198 -0.39687,1.7198 -0.31208,0 -0.39688,-0.36748 -0.39688,-1.7198 z m 69.32084,0.022 c 0,-1.39577 0.0813,-1.74183 0.4095,-1.74183 0.33388,0 0.39495,0.3015 0.33073,1.63265 -0.0488,1.01091 -0.20472,1.67423 -0.4095,1.74184 -0.24215,0.08 -0.33073,-0.35733 -0.33073,-1.63265 z m -101.600005,-5.1814 c 0,-1.23472 0.08819,-1.5875 0.396875,-1.5875 0.308681,0 0.396875,0.35278 0.396875,1.5875 0,1.23472 -0.08819,1.5875 -0.396875,1.5875 -0.308682,0 -0.396875,-0.35278 -0.396875,-1.5875 z m 69.056255,0 c 0,-1.41111 0.0588,-1.5875 0.52916,-1.5875 0.47037,0 0.52917,0.17639 0.52917,1.5875 0,1.41111 -0.0588,1.5875 -0.52917,1.5875 -0.47037,0 -0.52916,-0.17639 -0.52916,-1.5875 z m -36.77709,-0.79375 c 0,-1.23472 0.0882,-1.5875 0.39688,-1.5875 0.30868,0 0.39687,0.35278 0.39687,1.5875 0,1.23472 -0.0882,1.5875 -0.39687,1.5875 -0.30868,0 -0.39688,-0.35278 -0.39688,-1.5875 z m 69.32084,0 c 0,-1.23472 0.0882,-1.5875 0.39687,-1.5875 0.30868,0 0.39688,0.35278 0.39688,1.5875 0,1.23472 -0.0882,1.5875 -0.39688,1.5875 -0.30868,0 -0.39687,-0.35278 -0.39687,-1.5875 z M 74.130325,139.99436 c 0,-1.23473 0.08819,-1.5875 0.396875,-1.5875 0.308681,0 0.396875,0.35277 0.396875,1.5875 0,1.23472 -0.08819,1.5875 -0.396875,1.5875 -0.308682,0 -0.396875,-0.35278 -0.396875,-1.5875 z m 69.056255,0 c 0,-1.41111 0.0588,-1.5875 0.52916,-1.5875 0.47037,0 0.52917,0.17639 0.52917,1.5875 0,1.41111 -0.0588,1.5875 -0.52917,1.5875 -0.47037,0 -0.52916,-0.17639 -0.52916,-1.5875 z m -36.77709,-0.79375 c 0,-1.23473 0.0882,-1.5875 0.39688,-1.5875 0.30868,0 0.39687,0.35277 0.39687,1.5875 0,1.23472 -0.0882,1.5875 -0.39687,1.5875 -0.30868,0 -0.39688,-0.35278 -0.39688,-1.5875 z m 69.32084,0 c 0,-1.23473 0.0882,-1.5875 0.39687,-1.5875 0.30868,0 0.39688,0.35277 0.39688,1.5875 0,1.23472 -0.0882,1.5875 -0.39688,1.5875 -0.30868,0 -0.39687,-0.35278 -0.39687,-1.5875 z m -92.604172,-4.99853 v -5.58481 h 2.90144 c 3.422224,0 4.353891,0.33209 5.382596,1.91858 1.728999,2.66652 0.995415,7.11425 -1.404869,8.51771 -0.74776,0.43722 -1.499092,0.55993 -3.902604,0.63739 l -2.976563,0.0959 z m 6.359555,3.54258 c 0.866081,-0.77224 1.313362,-2.03348 1.313362,-3.70343 0,-3.12188 -0.961625,-4.10104 -4.027622,-4.10104 h -2.057795 v 4.26135 4.26135 l 2.089703,-0.0949 c 1.623627,-0.0737 2.221884,-0.21276 2.682352,-0.62333 z m 62.961277,-3.57114 v -5.55625 h 4.11945 4.11944 l -0.0846,0.59532 c -0.0817,0.57561 -0.19182,0.59777 -3.32569,0.6696 l -3.24115,0.0743 v 1.71165 1.71164 h 3.04271 c 2.86632,0 3.04271,0.0307 3.04271,0.52917 0,0.49849 -0.17639,0.52917 -3.04271,0.52917 h -3.04271 v 1.98437 1.98438 h 3.43959 3.43958 v 0.66146 0.66145 h -4.23333 -4.23334 z m -78.316665,0 c 0,-1.23472 0.08819,-1.5875 0.396875,-1.5875 0.308681,0 0.396875,0.35278 0.396875,1.5875 0,1.23473 -0.08819,1.5875 -0.396875,1.5875 -0.308682,0 -0.396875,-0.35277 -0.396875,-1.5875 z m 69.056255,0 c 0,-1.41111 0.0588,-1.5875 0.52916,-1.5875 0.47037,0 0.52917,0.17639 0.52917,1.5875 0,1.41111 -0.0588,1.5875 -0.52917,1.5875 -0.47037,0 -0.52916,-0.17639 -0.52916,-1.5875 z m -36.77709,-0.79375 c 0,-1.23472 0.0882,-1.5875 0.39688,-1.5875 0.30868,0 0.39687,0.35278 0.39687,1.5875 0,1.23473 -0.0882,1.5875 -0.39687,1.5875 -0.30868,0 -0.39688,-0.35277 -0.39688,-1.5875 z m 69.32084,0 c 0,-1.23472 0.0882,-1.5875 0.39687,-1.5875 0.30868,0 0.39688,0.35278 0.39688,1.5875 0,1.23473 -0.0882,1.5875 -0.39688,1.5875 -0.30868,0 -0.39687,-0.35277 -0.39687,-1.5875 z M 74.130325,128.35269 c 0,-1.23472 0.08819,-1.5875 0.396875,-1.5875 0.308681,0 0.396875,0.35278 0.396875,1.5875 0,1.23472 -0.08819,1.5875 -0.396875,1.5875 -0.308682,0 -0.396875,-0.35278 -0.396875,-1.5875 z m 69.056255,0 c 0,-1.41111 0.0588,-1.5875 0.52916,-1.5875 0.47037,0 0.52917,0.17639 0.52917,1.5875 0,1.41111 -0.0588,1.5875 -0.52917,1.5875 -0.47037,0 -0.52916,-0.17639 -0.52916,-1.5875 z m -36.77709,-0.79375 c 0,-1.23472 0.0882,-1.5875 0.39688,-1.5875 0.30868,0 0.39687,0.35278 0.39687,1.5875 0,1.23472 -0.0882,1.5875 -0.39687,1.5875 -0.30868,0 -0.39688,-0.35278 -0.39688,-1.5875 z m 69.32084,0 c 0,-1.23472 0.0882,-1.5875 0.39687,-1.5875 0.30868,0 0.39688,0.35278 0.39688,1.5875 0,1.23472 -0.0882,1.5875 -0.39688,1.5875 -0.30868,0 -0.39687,-0.35278 -0.39687,-1.5875 z M 74.130325,122.37752 c 0,-1.27532 0.08858,-1.7126 0.330729,-1.63265 0.204782,0.0676 0.360728,0.73093 0.409501,1.74184 0.06423,1.33115 0.0031,1.63265 -0.330729,1.63265 -0.328144,0 -0.409501,-0.34606 -0.409501,-1.74184 z m 69.109775,0.0882 c 0.0599,-1.25851 0.1736,-1.65364 0.47564,-1.65364 0.30205,0 0.4157,0.39513 0.47565,1.65364 0.0728,1.52743 0.0364,1.65365 -0.47565,1.65365 -0.5121,0 -0.5484,-0.12622 -0.47564,-1.65365 z m -36.83061,-0.7276 c 0,-1.23473 0.0882,-1.5875 0.39688,-1.5875 0.30868,0 0.39687,0.35277 0.39687,1.5875 0,1.23472 -0.0882,1.5875 -0.39687,1.5875 -0.30868,0 -0.39688,-0.35278 -0.39688,-1.5875 z m 69.32084,0 c 0,-1.23473 0.0882,-1.5875 0.39687,-1.5875 0.30868,0 0.39688,0.35277 0.39688,1.5875 0,1.23472 -0.0882,1.5875 -0.39688,1.5875 -0.30868,0 -0.39687,-0.35278 -0.39687,-1.5875 z m -101.551433,-4.1672 c 0.08107,-0.70455 0.140298,-0.73008 1.869657,-0.80584 1.468319,-0.0643 1.785938,-0.005 1.785938,0.33073 0,0.31834 -0.316188,0.40896 -1.426901,0.40896 -1.024281,0 -1.469874,0.11199 -1.579197,0.39688 -0.260612,0.67914 -0.737741,0.43619 -0.649497,-0.33073 z m 69.138503,0.46065 c -0.0907,-0.14682 -0.0881,-0.50923 0.006,-0.80535 0.15264,-0.48092 0.35696,-0.53009 1.91422,-0.46065 1.1005,0.0491 1.78363,0.1997 1.85262,0.40847 0.0785,0.23763 -0.29862,0.33073 -1.33967,0.33073 -1.04388,0 -1.49153,0.11095 -1.60125,0.39688 -0.17488,0.45574 -0.59035,0.52063 -0.83182,0.12992 z M 80.215742,117.1079 c 0,-0.31207 0.367477,-0.39688 1.719791,-0.39688 1.352315,0 1.719792,0.0848 1.719792,0.39688 0,0.31207 -0.367477,0.39687 -1.719792,0.39687 -1.352314,0 -1.719791,-0.0848 -1.719791,-0.39687 z m 5.885931,0.0661 c 0.06761,-0.20478 0.730933,-0.36072 1.74184,-0.4095 1.331153,-0.0642 1.632646,-0.003 1.632646,0.33073 0,0.32815 -0.34606,0.4095 -1.74184,0.4095 -1.275321,0 -1.712595,-0.0886 -1.632646,-0.33073 z m 6.020319,-0.0661 c 0,-0.30868 0.352777,-0.39688 1.5875,-0.39688 1.234723,0 1.5875,0.0882 1.5875,0.39688 0,0.30868 -0.352777,0.39687 -1.5875,0.39687 -1.234723,0 -1.5875,-0.0882 -1.5875,-0.39687 z m 5.820833,0 c 0,-0.30868 0.352777,-0.39688 1.5875,-0.39688 1.234725,0 1.587505,0.0882 1.587505,0.39688 0,0.30868 -0.35278,0.39687 -1.587505,0.39687 -1.234723,0 -1.5875,-0.0882 -1.5875,-0.39687 z m 5.820835,-0.0126 c 0,-0.33388 0.30149,-0.39496 1.63264,-0.33073 1.01091,0.0488 1.67424,0.20472 1.74184,0.4095 0.0799,0.24215 -0.35732,0.33073 -1.63264,0.33073 -1.39578,-1e-5 -1.74184,-0.0814 -1.74184,-0.40951 z m 45.77292,0 c 0,-0.33388 0.30149,-0.39496 1.63264,-0.33073 1.01091,0.0488 1.67423,0.20472 1.74184,0.4095 0.0799,0.24215 -0.35732,0.33073 -1.63264,0.33073 -1.39578,-1e-5 -1.74184,-0.0814 -1.74184,-0.40951 z m 5.82083,0.0403 c 0,-0.28258 0.35064,-0.41855 1.22793,-0.47617 1.18982,-0.0781 0.33008,-0.54448 -27.70859,-15.02961 C 112.96167,93.407847 98.906348,86.148221 97.642708,85.497269 l -2.297522,-1.18355 -0.494641,0.610854 -0.494639,0.610854 -1.677469,-1.887453 c -0.92261,-1.038098 -1.726054,-1.83887 -1.785432,-1.779489 -0.05938,0.05938 0.252381,1.08527 0.692803,2.279758 0.440423,1.194488 0.800767,2.282738 0.800767,2.418332 0,0.135593 -0.297656,0.246533 -0.661458,0.246533 h -0.661458 v 15.213542 c 0,13.34676 -0.0487,15.21354 -0.396875,15.21354 -0.348176,0 -0.396875,-1.86678 -0.396875,-15.21354 V 86.813108 h -0.811581 c -0.93145,0 -0.946687,0.144415 0.341982,-3.241146 0.726869,-1.909614 0.833456,-2.050521 1.551094,-2.050521 0.423822,0 0.770588,-0.119062 0.770588,-0.264583 0,-0.149251 0.749652,-0.264583 1.719792,-0.264583 1.307354,0 1.719791,0.08989 1.719791,0.374827 0,0.206153 -0.148828,0.43488 -0.330729,0.508278 -0.181901,0.0734 -0.06284,0.142851 0.264583,0.154339 0.640628,0.02249 0.73899,0.316378 0.34947,1.044202 -0.215138,0.401992 3.779155,2.538997 31.982211,17.110959 17.72543,9.15837 32.17874,16.7801 32.11846,16.93718 -0.0637,0.16613 -1.04621,0.3114 -2.34887,0.3473 -1.83823,0.0507 -2.23929,-0.009 -2.23929,-0.33381 z m 5.88593,0.0385 c 0.0676,-0.20478 0.73093,-0.36073 1.74184,-0.4095 1.33115,-0.0642 1.63265,-0.003 1.63265,0.33073 0,0.32814 -0.34606,0.4095 -1.74184,0.4095 -1.27532,0 -1.7126,-0.0886 -1.63265,-0.33073 z m 5.82083,0 c 0.0676,-0.20478 0.73094,-0.36073 1.74184,-0.4095 1.33116,-0.0642 1.63265,-0.003 1.63265,0.33073 0,0.32814 -0.34606,0.4095 -1.74184,0.4095 -1.27532,0 -1.71259,-0.0886 -1.63265,-0.33073 z m 6.02032,-0.0661 c 0,-0.30788 0.34964,-0.39688 1.5592,-0.39688 1.14187,0 1.59995,0.10623 1.71148,0.39688 0.12571,0.32757 -0.14657,0.39687 -1.55919,0.39687 -1.34493,0 -1.71149,-0.085 -1.71149,-0.39687 z M 74.659492,81.38915 c 0,-0.312074 0.367477,-0.396875 1.719791,-0.396875 1.352315,0 1.719792,0.0848 1.719792,0.396875 0,0.312073 -0.367477,0.396875 -1.719792,0.396875 -1.352314,0 -1.719791,-0.0848 -1.719791,-0.396875 z m 5.820833,0 c 0,-0.312074 0.367477,-0.396875 1.719792,-0.396875 1.352314,0 1.719791,0.0848 1.719791,0.396875 0,0.312073 -0.367477,0.396875 -1.719791,0.396875 -1.352315,0 -1.719792,-0.0848 -1.719792,-0.396875 z m 5.820833,0 c 0,-0.312074 0.367478,-0.396875 1.719792,-0.396875 1.352315,0 1.719792,0.0848 1.719792,0.396875 0,0.312073 -0.367477,0.396875 -1.719792,0.396875 -1.352314,0 -1.719792,-0.0848 -1.719792,-0.396875 z m 11.906251,0 c 0,-0.308682 0.352777,-0.396875 1.5875,-0.396875 1.234721,0 1.587501,0.08819 1.587501,0.396875 0,0.308681 -0.35278,0.396875 -1.587501,0.396875 -1.234723,0 -1.5875,-0.08819 -1.5875,-0.396875 z m 5.820831,0.0132 c 0,-0.325442 0.3322,-0.410077 1.60955,-0.410077 2.13731,0 2.04499,0.62689 -0.1091,0.740807 -1.21294,0.06415 -1.50045,7.93e-4 -1.50045,-0.33073 z m -29.897915,-4.004 c 0,-1.275321 0.08858,-1.712595 0.330729,-1.632646 0.204782,0.06761 0.360728,0.730933 0.409501,1.74184 0.06423,1.331153 0.0031,1.632645 -0.330729,1.632645 -0.328144,0 -0.409501,-0.346059 -0.409501,-1.741839 z m 32.279165,-0.63941 c 0,-1.234724 0.0882,-1.5875 0.39688,-1.5875 0.30868,0 0.39687,0.352776 0.39687,1.5875 0,1.234723 -0.0882,1.587499 -0.39687,1.587499 -0.30868,0 -0.39688,-0.352776 -0.39688,-1.587499 z M 74.130325,71.599567 c 0,-1.293519 0.08819,-1.734492 0.330729,-1.653646 0.214186,0.07139 0.330729,0.654108 0.330729,1.653646 0,0.999537 -0.116543,1.58225 -0.330729,1.653645 -0.242536,0.08085 -0.330729,-0.360127 -0.330729,-1.653645 z m 32.279165,-0.79375 c 0,-1.352315 0.0848,-1.719792 0.39688,-1.719792 0.31207,0 0.39687,0.367477 0.39687,1.719792 0,1.352314 -0.0848,1.719791 -0.39687,1.719791 -0.31208,0 -0.39688,-0.367477 -0.39688,-1.719791 z M 74.130325,65.800781 c 0,-1.39578 0.08136,-1.741839 0.409501,-1.741839 0.33388,0 0.394954,0.301492 0.330729,1.632646 -0.04877,1.010906 -0.204719,1.67423 -0.409501,1.741839 -0.242149,0.07995 -0.330729,-0.357325 -0.330729,-1.632646 z m 32.279165,-0.815798 c 0,-1.352314 0.0848,-1.719791 0.39688,-1.719791 0.31207,0 0.39687,0.367477 0.39687,1.719791 0,1.352315 -0.0848,1.719792 -0.39687,1.719792 -0.31208,0 -0.39688,-0.367477 -0.39688,-1.719792 z m -23.222554,-5.093229 0.07151,-5.490104 3.770313,-0.07341 3.770312,-0.07341 v 0.668721 0.668724 h -3.042708 -3.042709 v 1.719792 1.719792 h 2.645834 2.645833 v 0.661458 0.661458 h -2.645833 -2.645834 v 2.513542 2.513541 H 83.91454 83.115422 Z m -9.056611,-0.06614 c 0,-1.234724 0.08819,-1.5875 0.396875,-1.5875 0.308681,0 0.396875,0.352776 0.396875,1.5875 0,1.234723 -0.08819,1.587499 -0.396875,1.587499 -0.308682,0 -0.396875,-0.352776 -0.396875,-1.587499 z M 106.40949,59.16415 c 0,-1.352314 0.0848,-1.719791 0.39688,-1.719791 0.31207,0 0.39687,0.367477 0.39687,1.719791 0,1.352315 -0.0848,1.719792 -0.39687,1.719792 -0.31208,0 -0.39688,-0.367477 -0.39688,-1.719792 z M 74.130325,54.004775 c 0,-1.234723 0.08819,-1.5875 0.396875,-1.5875 0.308681,0 0.396875,0.352777 0.396875,1.5875 0,1.234723 -0.08819,1.5875 -0.396875,1.5875 -0.308682,0 -0.396875,-0.352777 -0.396875,-1.5875 z m 32.279165,-0.661458 c 0,-1.352315 0.0848,-1.719792 0.39688,-1.719792 0.31207,0 0.39687,0.367477 0.39687,1.719792 0,1.352314 -0.0848,1.719792 -0.39687,1.719792 -0.31208,0 -0.39688,-0.367478 -0.39688,-1.719792 z M 74.130325,48.183942 c 0,-1.234723 0.08819,-1.5875 0.396875,-1.5875 0.308681,0 0.396875,0.352777 0.396875,1.5875 0,1.234723 -0.08819,1.5875 -0.396875,1.5875 -0.308682,0 -0.396875,-0.352777 -0.396875,-1.5875 z m 32.279165,-0.79375 c 0,-1.234723 0.0882,-1.5875 0.39688,-1.5875 0.30868,0 0.39687,0.352777 0.39687,1.5875 0,1.234723 -0.0882,1.5875 -0.39687,1.5875 -0.30868,0 -0.39688,-0.352777 -0.39688,-1.5875 z M 74.130325,43.289151 c 0,-0.64256 0.05292,-0.661459 1.852083,-0.661459 1.469909,0 1.852084,0.08189 1.852084,0.396875 0,0.304673 -0.33808,0.396875 -1.455209,0.396875 -0.800364,0 -1.455208,0.119063 -1.455208,0.264584 0,0.14552 -0.178594,0.264583 -0.396875,0.264583 -0.246944,0 -0.396875,-0.249883 -0.396875,-0.661458 z m 6.085417,-0.264584 c 0,-0.312073 0.367477,-0.396875 1.719791,-0.396875 1.352315,0 1.719792,0.0848 1.719792,0.396875 0,0.312074 -0.367477,0.396875 -1.719792,0.396875 -1.352314,0 -1.719791,-0.0848 -1.719791,-0.396875 z m 5.997223,0.220485 c -0.453186,-0.453183 -0.04275,-0.61736 1.543402,-0.61736 1.352314,0 1.719792,0.0848 1.719792,0.396875 0,0.30742 -0.347877,0.396875 -1.543402,0.396875 -0.848874,0 -1.62278,-0.07937 -1.719792,-0.17639 z m 5.909027,-0.220485 c 0,-0.308681 0.352777,-0.396875 1.5875,-0.396875 1.234723,0 1.5875,0.08819 1.5875,0.396875 0,0.308682 -0.352777,0.396875 -1.5875,0.396875 -1.234723,0 -1.5875,-0.08819 -1.5875,-0.396875 z m 5.820833,0 c 0,-0.308681 0.352777,-0.396875 1.5875,-0.396875 1.234725,0 1.587505,0.08819 1.587505,0.396875 0,0.308682 -0.35278,0.396875 -1.587505,0.396875 -1.234723,0 -1.5875,-0.08819 -1.5875,-0.396875 z m 5.820835,0 c 0,-0.349821 0.28325,-0.408633 1.65364,-0.343355 0.90951,0.04333 1.65365,0.197834 1.65365,0.343355 0,0.145521 -0.74414,0.30003 -1.65365,0.343355 -1.37039,0.06528 -1.65364,0.0065 -1.65364,-0.343355 z M 90.269909,29.927692 V 16.963109 h -0.811581 c -0.929177,0 -0.93985,0.112589 0.29473,-3.108854 l 0.73514,-1.918229 H 82.309263 74.130325 V -7.6431401 -27.222306 h 16.538165 16.53817 l -0.0679,19.5130201 -0.0679,19.5130209 -8.135937,0.06997 c -4.474766,0.03848 -8.135938,0.119657 -8.135938,0.180387 0,0.06073 0.357188,1.079164 0.79375,2.263185 0.436563,1.184021 0.79375,2.263706 0.79375,2.3993 0,0.135594 -0.297656,0.246533 -0.661458,0.246533 h -0.661458 v 12.964583 c 0,11.347686 -0.0495,12.964584 -0.396875,12.964584 -0.34738,0 -0.396875,-1.616898 -0.396875,-12.964584 z M 106.40949,-7.6431401 V -26.428556 H 90.666784 74.924075 V -7.6431401 11.142276 h 15.742709 15.742706 z m -19.465225,3.1911086 c -2.728658,-0.6528766 -4.258805,-2.9585364 -4.03321,-6.0773415 0.207055,-2.862533 1.593945,-4.48614 4.314513,-5.050928 2.327963,-0.483283 4.381061,0.352255 5.318096,2.164277 0.460504,0.890521 0.465291,0.875331 -0.35532,1.127572 -0.479642,0.147432 -0.645205,0.05116 -0.853302,-0.496177 -0.612304,-1.61048 -3.192929,-2.211394 -5.039609,-1.173502 -2.461191,1.383266 -2.614636,5.932749 -0.258858,7.6748751 1.075394,0.7952669 2.885758,0.9094904 4.324924,0.272878 1.205516,-0.5332563 1.231326,-0.5699431 1.231326,-1.7501763 v -1.2055025 h -1.5875 c -1.41111,0 -1.5875,-0.058796 -1.5875,-0.5291667 0,-0.4899692 0.17639,-0.5291666 2.38125,-0.5291666 h 2.38125 v 1.9663584 c 0,1.893154 -0.03026,1.9879077 -0.812911,2.5452027 -1.531506,1.0905281 -3.604321,1.4959819 -5.423149,1.0607974 z"
       id="path21252" />
  </g>
</svg>
