<svg version="1.1" viewBox="0.0 0.0 600.0 371.0" fill="none" stroke="none" stroke-linecap="square" stroke-miterlimit="10" width="600" height="371" xmlns:xlink="http://www.w3.org/1999/xlink" xmlns="http://www.w3.org/2000/svg"><path fill="#ffffff" d="M0 0L600.0 0L600.0 371.0L0 371.0L0 0Z" fill-rule="nonzero"/><path stroke="#333333" stroke-width="1.0" stroke-linecap="butt" d="M115.5 318.5L581.5 318.5" fill-rule="nonzero"/><path stroke="#cccccc" stroke-width="1.0" stroke-linecap="butt" d="M115.5 234.5L581.5 234.5" fill-rule="nonzero"/><path stroke="#cccccc" stroke-width="1.0" stroke-linecap="butt" d="M115.5 150.5L581.5 150.5" fill-rule="nonzero"/><path stroke="#cccccc" stroke-width="1.0" stroke-linecap="butt" d="M115.5 66.5L581.5 66.5" fill-rule="nonzero"/><clipPath id="id_0"><path d="M115.55 66.916664L581.45 66.916664L581.45 318.45L115.55 318.45L115.55 66.916664Z" clip-rule="nonzero"/></clipPath><path stroke="#000000" stroke-width="2.0" stroke-linecap="butt" stroke-opacity="0.0" clip-path="url(#id_0)" d="M254.0 318.0L164.0 318.0L164.0 71.0C164.0 69.89543 164.89543 69.0 166.0 69.0L252.0 69.0C253.10457 69.0 254.0 69.89543 254.0 71.0Z" fill-rule="nonzero"/><path fill="#4285f4" clip-path="url(#id_0)" d="M254.0 318.0L164.0 318.0L164.0 71.0C164.0 69.89543 164.89543 69.0 166.0 69.0L252.0 69.0C253.10457 69.0 254.0 69.89543 254.0 71.0Z" fill-rule="nonzero"/><path stroke="#000000" stroke-width="2.0" stroke-linecap="butt" stroke-opacity="0.0" clip-path="url(#id_0)" d="M394.0 318.0L304.0 318.0L304.0 112.0C304.0 110.89543 304.89542 110.0 306.0 110.0L392.0 110.0C393.10458 110.0 394.0 110.89543 394.0 112.0Z" fill-rule="nonzero"/><path fill="#ea4335" clip-path="url(#id_0)" d="M394.0 318.0L304.0 318.0L304.0 112.0C304.0 110.89543 304.89542 110.0 306.0 110.0L392.0 110.0C393.10458 110.0 394.0 110.89543 394.0 112.0Z" fill-rule="nonzero"/><path stroke="#000000" stroke-width="2.0" stroke-linecap="butt" stroke-opacity="0.0" clip-path="url(#id_0)" d="M533.0 318.0L443.0 318.0L443.0 239.0C443.0 237.89543 443.89542 237.0 445.0 237.0L531.0 237.0C532.10455 237.0 533.0 237.89543 533.0 239.0Z" fill-rule="nonzero"/><path fill="#34a853" clip-path="url(#id_0)" d="M533.0 318.0L443.0 318.0L443.0 239.0C443.0 237.89543 443.89542 237.0 445.0 237.0L531.0 237.0C532.10455 237.0 533.0 237.89543 533.0 239.0Z" fill-rule="nonzero"/><path fill="#000000" d="M32.95626 240.77708L32.80001 238.99583Q33.86251 238.87083 34.55001 238.41771Q35.23751 237.94896 35.67501 236.98021Q36.096886 235.99583 36.096886 234.76146Q36.096886 233.68333 35.784386 232.85521Q35.45626 232.02708 34.89376 231.62083Q34.33126 231.21458 33.659386 231.21458Q32.98751 231.21458 32.48751 231.60521Q31.987513 231.99583 31.643763 232.88646Q31.409388 233.46458 30.940638 235.44896Q30.471888 237.41771 30.050013 238.19896Q29.518763 239.23021 28.721888 239.73021Q27.925013 240.23021 26.940638 240.23021Q25.846888 240.23021 24.909388 239.62083Q23.971888 239.01146 23.487513 237.82396Q22.987513 236.63646 22.987513 235.19896Q22.987513 233.60521 23.503138 232.38646Q24.018763 231.16771 25.018763 230.52708Q26.003138 229.87083 27.268763 229.82396L27.409388 231.63646Q26.050013 231.77708 25.362513 232.62083Q24.659388 233.46458 24.659388 235.12083Q24.659388 236.83958 25.300013 237.63646Q25.925013 238.41771 26.800013 238.41771Q27.581263 238.41771 28.081263 237.85521Q28.581263 237.30833 29.096888 234.99583Q29.612513 232.68333 30.003138 231.82396Q30.581263 230.57396 31.471888 229.98021Q32.346886 229.38646 33.503136 229.38646Q34.64376 229.38646 35.659386 230.04271Q36.67501 230.69896 37.23751 231.93333Q37.80001 233.15208 37.80001 234.68333Q37.80001 236.62083 37.23751 237.93333Q36.659386 239.24583 35.51876 239.99583Q34.378136 240.74583 32.95626 240.77708ZM34.20626 220.26146L34.440636 218.44896Q36.01876 218.87083 36.909386 220.04271Q37.784386 221.19896 37.784386 223.01146Q37.784386 225.27708 36.39376 226.62083Q34.98751 227.94896 32.45626 227.94896Q29.831263 227.94896 28.393763 226.60521Q26.940638 225.26146 26.940638 223.10521Q26.940638 221.02708 28.362513 219.71458Q29.768763 218.38646 32.346886 218.38646Q32.503136 218.38646 32.815636 218.40208L32.815636 226.13646Q34.51876 226.04271 35.42501 225.16771Q36.33126 224.29271 36.33126 222.99583Q36.33126 222.02708 35.83126 221.35521Q35.315636 220.66771 34.20626 220.26146ZM31.362513 226.04271L31.362513 220.24583Q30.065638 220.35521 29.409388 220.90208Q28.393763 221.74583 28.393763 223.08958Q28.393763 224.29271 29.206263 225.12083Q30.003138 225.94896 31.362513 226.04271ZM33.753136 209.58958L33.971886 207.87083Q35.76876 208.15208 36.784386 209.32396Q37.784386 210.48021 37.784386 212.18333Q37.784386 214.30833 36.39376 215.60521Q35.003136 216.90208 32.409386 216.90208Q30.721888 216.90208 29.471888 216.35521Q28.206263 215.79271 27.581263 214.65208Q26.940638 213.51146 26.940638 212.16771Q26.940638 210.48021 27.800013 209.41771Q28.659388 208.33958 30.221888 208.02708L30.487513 209.74583Q29.440638 209.98021 28.925013 210.60521Q28.393763 211.23021 28.393763 212.10521Q28.393763 213.43333 29.346888 214.26146Q30.300013 215.08958 32.346886 215.08958Q34.440636 215.08958 35.39376 214.29271Q36.33126 213.49583 36.33126 212.19896Q36.33126 211.16771 35.70626 210.48021Q35.065636 209.77708 33.753136 209.58958ZM32.36251 207.01146Q29.487513 207.01146 28.096888 205.41771Q26.940638 204.07396 26.940638 202.15208Q26.940638 200.01146 28.346888 198.66771Q29.753138 197.30833 32.221886 197.30833Q34.221886 197.30833 35.378136 197.90208Q36.51876 198.49583 37.159386 199.65208Q37.784386 200.79271 37.784386 202.15208Q37.784386 204.33958 36.39376 205.68333Q34.98751 207.01146 32.36251 207.01146ZM32.36251 205.21458Q34.36251 205.21458 35.346886 204.35521Q36.33126 203.48021 36.33126 202.15208Q36.33126 200.83958 35.346886 199.98021Q34.346886 199.10521 32.30001 199.10521Q30.378138 199.10521 29.393763 199.98021Q28.393763 200.85521 28.393763 202.15208Q28.393763 203.48021 29.393763 204.35521Q30.378138 205.21458 32.36251 205.21458ZM37.55001 195.37083L27.175013 195.37083L27.175013 193.77708L28.659388 193.77708Q26.940638 192.63646 26.940638 190.48021Q26.940638 189.54271 27.284388 188.76146Q27.612513 187.96458 28.159388 187.57396Q28.706263 187.18333 29.456263 187.02708Q29.956263 186.93333 31.175013 186.93333L37.55001 186.93333L37.55001 188.69896L31.237513 188.69896Q30.159388 188.69896 29.628138 188.90208Q29.096888 189.10521 28.784388 189.63646Q28.471888 190.15208 28.471888 190.85521Q28.471888 191.98021 29.190638 192.79271Q29.893763 193.60521 31.878138 193.60521L37.55001 193.60521L37.55001 195.37083ZM37.55001 178.63646L36.23751 178.63646Q37.784386 179.62083 37.784386 181.54271Q37.784386 182.77708 37.096886 183.82396Q36.409386 184.85521 35.190636 185.43333Q33.971886 185.99583 32.378136 185.99583Q30.815638 185.99583 29.550013 185.48021Q28.284388 184.96458 27.612513 183.93333Q26.940638 182.88646 26.940638 181.62083Q26.940638 180.68333 27.346888 179.94896Q27.737513 179.21458 28.362513 178.74583L23.237513 178.74583L23.237513 177.01146L37.55001 177.01146L37.55001 178.63646ZM32.378136 184.19896Q34.36251 184.19896 35.346886 183.35521Q36.33126 182.51146 36.33126 181.37083Q36.33126 180.21458 35.39376 179.41771Q34.45626 178.60521 32.51876 178.60521Q30.393763 178.60521 29.393763 179.43333Q28.393763 180.24583 28.393763 181.44896Q28.393763 182.62083 29.362513 183.41771Q30.315638 184.19896 32.378136 184.19896ZM34.45626 175.07396L34.17501 173.32396Q35.221886 173.18333 35.784386 172.51146Q36.33126 171.83958 36.33126 170.63646Q36.33126 169.43333 35.846886 168.85521Q35.346886 168.26146 34.690636 168.26146Q34.096886 168.26146 33.753136 168.77708Q33.51876 169.13646 33.159386 170.57396Q32.659386 172.51146 32.315636 173.26146Q31.956263 173.99583 31.331263 174.38646Q30.690638 174.77708 29.925013 174.77708Q29.237513 174.77708 28.643763 174.46458Q28.050013 174.13646 27.659388 173.58958Q27.362513 173.18333 27.159388 172.48021Q26.940638 171.76146 26.940638 170.94896Q26.940638 169.73021 27.300013 168.80833Q27.643763 167.88646 28.253138 167.44896Q28.846888 167.01146 29.846888 166.83958L30.081263 168.55833Q29.284388 168.68333 28.846888 169.24583Q28.393763 169.80833 28.393763 170.82396Q28.393763 172.04271 28.800013 172.55833Q29.190638 173.07396 29.721888 173.07396Q30.065638 173.07396 30.346888 172.85521Q30.628138 172.65208 30.815638 172.18333Q30.909388 171.91771 31.253138 170.63646Q31.753138 168.76146 32.08126 168.02708Q32.39376 167.29271 33.003136 166.87083Q33.596886 166.44896 34.503136 166.44896Q35.378136 166.44896 36.159386 166.96458Q36.940636 167.48021 37.36251 168.44896Q37.784386 169.41771 37.784386 170.63646Q37.784386 172.65208 36.940636 173.71458Q36.096886 174.77708 34.45626 175.07396Z" fill-rule="nonzero"/><path fill="#000000" d="M95.37813 318.3875Q95.37813 315.85626 95.89375 314.3094Q96.425 312.7469 97.45625 311.91876Q98.4875 311.075 100.05 311.075Q101.20625 311.075 102.06563 311.54376Q102.94063 311.9969 103.50313 312.8719Q104.06563 313.7469 104.39375 315.0125Q104.72188 316.2625 104.72188 318.3875Q104.72188 320.90314 104.19063 322.45Q103.675 323.9969 102.64375 324.85626Q101.62813 325.7 100.05 325.7Q97.97188 325.7 96.8 324.21564Q95.37813 322.41876 95.37813 318.3875ZM97.19063 318.3875Q97.19063 321.91876 98.00313 323.09064Q98.83125 324.2469 100.05 324.2469Q101.25313 324.2469 102.08125 323.075Q102.90938 321.90314 102.90938 318.3875Q102.90938 314.85626 102.08125 313.7Q101.25313 312.52814 100.03438 312.52814Q98.81563 312.52814 98.09688 313.5594Q97.19063 314.85626 97.19063 318.3875Z" fill-rule="nonzero"/><path fill="#000000" d="M102.00313 241.60556L100.2375 241.60556L100.2375 230.40244Q99.6125 231.01181 98.58125 231.62119Q97.55 232.21494 96.72188 232.52744L96.72188 230.82431Q98.20625 230.13681 99.3 229.15244Q100.40938 228.15244 100.8625 227.23056L102.00313 227.23056L102.00313 241.60556Z" fill-rule="nonzero"/><path fill="#000000" d="M104.6125 156.07361L104.6125 157.76111L95.15938 157.76111Q95.14375 157.12048 95.3625 156.54236Q95.72188 155.57361 96.51875 154.63611Q97.31563 153.69861 98.81563 152.46423Q101.15938 150.55798 101.97188 149.44861Q102.8 148.32361 102.8 147.32361Q102.8 146.27673 102.05 145.55798Q101.3 144.83923 100.09688 144.83923Q98.83125 144.83923 98.06563 145.60486Q97.3 146.37048 97.3 147.71423L95.4875 147.52673Q95.675 145.51111 96.87813 144.44861Q98.09688 143.38611 100.14375 143.38611Q102.19063 143.38611 103.39375 144.52673Q104.59688 145.66736 104.59688 147.35486Q104.59688 148.21423 104.2375 149.05798Q103.89375 149.88611 103.08125 150.80798Q102.26875 151.71423 100.37813 153.32361Q98.78438 154.65173 98.33125 155.12048Q97.89375 155.58923 97.59688 156.07361L104.6125 156.07361Z" fill-rule="nonzero"/><path fill="#000000" d="M95.39375 70.135414L97.14375 69.90104Q97.45625 71.40104 98.175 72.05729Q98.90938 72.71354 99.95625 72.71354Q101.19063 72.71354 102.03438 71.854164Q102.89375 70.99479 102.89375 69.729164Q102.89375 68.510414 102.09688 67.729164Q101.31563 66.947914 100.09688 66.947914Q99.59688 66.947914 98.8625 67.135414L99.05 65.58854Q99.22188 65.61979 99.33125 65.61979Q100.45625 65.61979 101.34688 65.041664Q102.25313 64.447914 102.25313 63.229164Q102.25313 62.260414 101.59688 61.61979Q100.94063 60.979164 99.90938 60.979164Q98.89375 60.979164 98.20625 61.635414Q97.51875 62.27604 97.33125 63.55729L95.56563 63.24479Q95.89375 61.479164 97.03438 60.510414Q98.175 59.541664 99.87813 59.541664Q101.05 59.541664 102.03438 60.041664Q103.01875 60.541664 103.53438 61.416664Q104.06563 62.291664 104.06563 63.260414Q104.06563 64.18229 103.56563 64.947914Q103.06563 65.71354 102.09688 66.166664Q103.3625 66.447914 104.06563 67.385414Q104.76875 68.30729 104.76875 69.68229Q104.76875 71.55729 103.39375 72.86979Q102.03438 74.166664 99.94063 74.166664Q98.05 74.166664 96.8 73.041664Q95.56563 71.916664 95.39375 70.135414Z" fill-rule="nonzero"/><path fill="#000000" d="M201.20662 347.45L201.20662 333.1375L202.95662 333.1375L202.95662 347.45L201.20662 347.45ZM205.20662 347.45L205.20662 333.1375L206.95662 333.1375L206.95662 347.45L205.20662 347.45ZM215.97224 347.45L215.97224 346.1375Q214.98787 347.6844 213.066 347.6844Q211.83162 347.6844 210.78474 346.9969Q209.7535 346.3094 209.17537 345.09064Q208.61287 343.8719 208.61287 342.27814Q208.61287 340.71564 209.1285 339.45Q209.64412 338.1844 210.67537 337.5125Q211.72224 336.84064 212.98787 336.84064Q213.92537 336.84064 214.65974 337.2469Q215.39412 337.6375 215.86287 338.2625L215.86287 333.1375L217.59724 333.1375L217.59724 347.45L215.97224 347.45ZM210.40974 342.27814Q210.40974 344.2625 211.2535 345.2469Q212.09724 346.23126 213.23787 346.23126Q214.39412 346.23126 215.191 345.29376Q216.0035 344.35626 216.0035 342.41876Q216.0035 340.29376 215.17537 339.29376Q214.36287 338.29376 213.15974 338.29376Q211.98787 338.29376 211.191 339.2625Q210.40974 340.21564 210.40974 342.27814Z" fill-rule="nonzero"/><path fill="#000000" d="M328.8125 347.45L328.8125 337.075L330.39062 337.075L330.39062 338.52814Q330.875 337.77814 331.6875 337.3094Q332.5 336.84064 333.53125 336.84064Q334.6875 336.84064 335.42188 337.325Q336.15625 337.79376 336.46875 338.65314Q337.70312 336.84064 339.67188 336.84064Q341.21875 336.84064 342.04688 337.7Q342.875 338.5594 342.875 340.325L342.875 347.45L341.125 347.45L341.125 340.91876Q341.125 339.85626 340.95312 339.40314Q340.78125 338.9344 340.32812 338.65314Q339.89062 338.3719 339.28125 338.3719Q338.1875 338.3719 337.45312 339.10626Q336.73438 339.825 336.73438 341.41876L336.73438 347.45L334.98438 347.45L334.98438 340.71564Q334.98438 339.54376 334.54688 338.96564Q334.125 338.3719 333.14062 338.3719Q332.40625 338.3719 331.76562 338.7625Q331.14062 339.15314 330.85938 339.90314Q330.57812 340.65314 330.57812 342.075L330.57812 347.45L328.8125 347.45ZM344.17188 342.2625Q344.17188 339.3875 345.76562 337.9969Q347.10938 336.84064 349.03125 336.84064Q351.17188 336.84064 352.51562 338.2469Q353.875 339.65314 353.875 342.1219Q353.875 344.1219 353.28125 345.27814Q352.6875 346.41876 351.53125 347.0594Q350.39062 347.6844 349.03125 347.6844Q346.84375 347.6844 345.5 346.29376Q344.17188 344.8875 344.17188 342.2625ZM345.96875 342.2625Q345.96875 344.2625 346.82812 345.2469Q347.70312 346.23126 349.03125 346.23126Q350.34375 346.23126 351.20312 345.2469Q352.07812 344.2469 352.07812 342.2Q352.07812 340.27814 351.20312 339.29376Q350.32812 338.29376 349.03125 338.29376Q347.70312 338.29376 346.82812 339.29376Q345.96875 340.27814 345.96875 342.2625ZM355.78125 347.45L355.78125 333.1375L357.53125 333.1375L357.53125 347.45L355.78125 347.45ZM366.54688 347.45L366.54688 346.1375Q365.5625 347.6844 363.64062 347.6844Q362.40625 347.6844 361.35938 346.9969Q360.32812 346.3094 359.75 345.09064Q359.1875 343.8719 359.1875 342.27814Q359.1875 340.71564 359.70312 339.45Q360.21875 338.1844 361.25 337.5125Q362.29688 336.84064 363.5625 336.84064Q364.5 336.84064 365.23438 337.2469Q365.96875 337.6375 366.4375 338.2625L366.4375 333.1375L368.17188 333.1375L368.17188 347.45L366.54688 347.45ZM360.98438 342.27814Q360.98438 344.2625 361.82812 345.2469Q362.67188 346.23126 363.8125 346.23126Q364.96875 346.23126 365.76562 345.29376Q366.57812 344.35626 366.57812 342.41876Q366.57812 340.29376 365.75 339.29376Q364.9375 338.29376 363.73438 338.29376Q362.5625 338.29376 361.76562 339.2625Q360.98438 340.21564 360.98438 342.27814Z" fill-rule="nonzero"/><path fill="#000000" d="M473.809 347.45L470.63712 337.075L472.44962 337.075L474.10587 343.0594L474.71524 345.29376Q474.76212 345.1219 475.2465 343.15314L476.90274 337.075L478.71524 337.075L480.26212 343.09064L480.77774 345.075L481.3715 343.075L483.15274 337.075L484.85587 337.075L481.6215 347.45L479.79337 347.45L478.13712 341.23126L477.7465 339.46564L475.63712 347.45L473.809 347.45ZM486.90274 335.15314L486.90274 333.1375L488.66837 333.1375L488.66837 335.15314L486.90274 335.15314ZM486.90274 347.45L486.90274 337.075L488.66837 337.075L488.66837 347.45L486.90274 347.45ZM490.85587 347.45L490.85587 333.1375L492.60587 333.1375L492.60587 347.45L490.85587 347.45ZM501.6215 347.45L501.6215 346.1375Q500.63712 347.6844 498.71524 347.6844Q497.48087 347.6844 496.434 346.9969Q495.40274 346.3094 494.82462 345.09064Q494.26212 343.8719 494.26212 342.27814Q494.26212 340.71564 494.77774 339.45Q495.29337 338.1844 496.32462 337.5125Q497.3715 336.84064 498.63712 336.84064Q499.57462 336.84064 500.309 337.2469Q501.04337 337.6375 501.51212 338.2625L501.51212 333.1375L503.2465 333.1375L503.2465 347.45L501.6215 347.45ZM496.059 342.27814Q496.059 344.2625 496.90274 345.2469Q497.7465 346.23126 498.88712 346.23126Q500.04337 346.23126 500.84024 345.29376Q501.65274 344.35626 501.65274 342.41876Q501.65274 340.29376 500.82462 339.29376Q500.01212 338.29376 498.809 338.29376Q497.63712 338.29376 496.84024 339.2625Q496.059 340.21564 496.059 342.27814Z" fill-rule="nonzero"/><path fill="#757575" d="M21.4875 37.55L19.8625 37.55L19.8625 23.2375L21.6125 23.2375L21.6125 28.346874Q22.7375 26.940624 24.45625 26.940624Q25.409374 26.940624 26.26875 27.33125Q27.128124 27.721874 27.675 28.425Q28.221874 29.1125 28.534374 30.096874Q28.846874 31.08125 28.846874 32.20625Q28.846874 34.878124 27.534374 36.33125Q26.221874 37.784374 24.378124 37.784374Q22.534374 37.784374 21.4875 36.253124L21.4875 37.55ZM21.471874 32.284374Q21.471874 34.14375 21.971874 34.9875Q22.815624 36.33125 24.221874 36.33125Q25.378124 36.33125 26.20625 35.33125Q27.05 34.33125 27.05 32.346874Q27.05 30.315624 26.2375 29.3625Q25.440624 28.39375 24.3 28.39375Q23.14375 28.39375 22.3 29.39375Q21.471874 30.39375 21.471874 32.284374ZM37.971874 34.20625L39.784374 34.440624Q39.3625 36.01875 38.190624 36.909374Q37.034374 37.784374 35.221874 37.784374Q32.95625 37.784374 31.6125 36.39375Q30.284374 34.9875 30.284374 32.45625Q30.284374 29.83125 31.628124 28.39375Q32.971874 26.940624 35.128124 26.940624Q37.20625 26.940624 38.51875 28.3625Q39.846874 29.76875 39.846874 32.346874Q39.846874 32.503124 39.83125 32.815624L32.096874 32.815624Q32.190624 34.51875 33.065624 35.425Q33.940624 36.33125 35.2375 36.33125Q36.20625 36.33125 36.878124 35.83125Q37.565624 35.315624 37.971874 34.20625ZM32.190624 31.3625L37.9875 31.3625Q37.878124 30.065624 37.33125 29.409374Q36.4875 28.39375 35.14375 28.39375Q33.940624 28.39375 33.1125 29.20625Q32.284374 30.003124 32.190624 31.3625ZM44.753124 37.55L40.8 27.175L42.659374 27.175L44.89375 33.39375Q45.253124 34.39375 45.55 35.471874Q45.784374 34.659374 46.20625 33.503124L48.503124 27.175L50.315624 27.175L46.39375 37.55L44.753124 37.55ZM50.784374 41.55L50.596874 39.89375Q51.175 40.05 51.596874 40.05Q52.190624 40.05 52.534374 39.846874Q52.89375 39.659374 53.1125 39.315624Q53.284374 39.05 53.659374 38.003124Q53.70625 37.846874 53.815624 37.565624L49.878124 27.175L51.76875 27.175L53.925 33.190624Q54.346874 34.33125 54.675 35.58125Q54.9875 34.378124 55.39375 33.221874L57.6125 27.175L59.378124 27.175L55.425 37.721874Q54.8 39.440624 54.440624 40.08125Q53.971874 40.95625 53.3625 41.346874Q52.76875 41.753124 51.925 41.753124Q51.409374 41.753124 50.784374 41.55ZM73.59688 37.55L73.59688 36.2375Q72.6125 37.784374 70.69063 37.784374Q69.45625 37.784374 68.40938 37.096874Q67.37813 36.409374 66.8 35.190624Q66.2375 33.971874 66.2375 32.378124Q66.2375 30.815624 66.75313 29.55Q67.26875 28.284374 68.3 27.6125Q69.34688 26.940624 70.6125 26.940624Q71.55 26.940624 72.28438 27.346874Q73.01875 27.7375 73.4875 28.3625L73.4875 23.2375L75.22188 23.2375L75.22188 37.55L73.59688 37.55ZM68.03438 32.378124Q68.03438 34.3625 68.87813 35.346874Q69.72188 36.33125 70.8625 36.33125Q72.01875 36.33125 72.81563 35.39375Q73.62813 34.45625 73.62813 32.51875Q73.62813 30.39375 72.8 29.39375Q71.9875 28.39375 70.78438 28.39375Q69.6125 28.39375 68.81563 29.3625Q68.03438 30.315624 68.03438 32.378124ZM77.78438 41.55L77.59688 39.89375Q78.175 40.05 78.59688 40.05Q79.19063 40.05 79.53438 39.846874Q79.89375 39.659374 80.1125 39.315624Q80.28438 39.05 80.65938 38.003124Q80.70625 37.846874 80.81563 37.565624L76.87813 27.175L78.76875 27.175L80.925 33.190624Q81.34688 34.33125 81.675 35.58125Q81.9875 34.378124 82.39375 33.221874L84.6125 27.175L86.37813 27.175L82.425 37.721874Q81.8 39.440624 81.44063 40.08125Q80.97188 40.95625 80.3625 41.346874Q79.76875 41.753124 78.925 41.753124Q78.40938 41.753124 77.78438 41.55ZM87.83125 37.55L87.83125 23.2375L89.58125 23.2375L89.58125 37.55L87.83125 37.55ZM91.87813 25.253124L91.87813 23.2375L93.64375 23.2375L93.64375 25.253124L91.87813 25.253124ZM91.87813 37.55L91.87813 27.175L93.64375 27.175L93.64375 37.55L91.87813 37.55ZM97.4875 37.55L95.8625 37.55L95.8625 23.2375L97.6125 23.2375L97.6125 28.346874Q98.7375 26.940624 100.45625 26.940624Q101.40938 26.940624 102.26875 27.33125Q103.12813 27.721874 103.675 28.425Q104.22188 29.1125 104.53438 30.096874Q104.84688 31.08125 104.84688 32.20625Q104.84688 34.878124 103.53438 36.33125Q102.22188 37.784374 100.37813 37.784374Q98.53438 37.784374 97.4875 36.253124L97.4875 37.55ZM97.47188 32.284374Q97.47188 34.14375 97.97188 34.9875Q98.81563 36.33125 100.22188 36.33125Q101.37813 36.33125 102.20625 35.33125Q103.05 34.33125 103.05 32.346874Q103.05 30.315624 102.2375 29.3625Q101.44063 28.39375 100.3 28.39375Q99.14375 28.39375 98.3 29.39375Q97.47188 30.39375 97.47188 32.284374ZM116.22188 41.753124Q114.76875 39.925 113.76875 37.471874Q112.76875 35.003124 112.76875 32.3625Q112.76875 30.034374 113.51875 27.909374Q114.39375 25.440624 116.22188 22.9875L117.4875 22.9875Q116.3 25.01875 115.925 25.89375Q115.33125 27.2375 114.9875 28.70625Q114.56563 30.534374 114.56563 32.378124Q114.56563 37.065624 117.4875 41.753124L116.22188 41.753124ZM119.15938 34.45625L120.90938 34.175Q121.05 35.221874 121.72188 35.784374Q122.39375 36.33125 123.59688 36.33125Q124.8 36.33125 125.37813 35.846874Q125.97188 35.346874 125.97188 34.690624Q125.97188 34.096874 125.45625 33.753124Q125.09688 33.51875 123.65938 33.159374Q121.72188 32.659374 120.97188 32.315624Q120.2375 31.95625 119.84688 31.33125Q119.45625 30.690624 119.45625 29.925Q119.45625 29.2375 119.76875 28.64375Q120.09688 28.05 120.64375 27.659374Q121.05 27.3625 121.75313 27.159374Q122.47188 26.940624 123.28438 26.940624Q124.50313 26.940624 125.425 27.3Q126.34688 27.64375 126.78438 28.253124Q127.22188 28.846874 127.39375 29.846874L125.675 30.08125Q125.55 29.284374 124.9875 28.846874Q124.425 28.39375 123.40938 28.39375Q122.19063 28.39375 121.675 28.8Q121.15938 29.190624 121.15938 29.721874Q121.15938 30.065624 121.37813 30.346874Q121.58125 30.628124 122.05 30.815624Q122.31563 30.909374 123.59688 31.253124Q125.47188 31.753124 126.20625 32.08125Q126.94063 32.39375 127.3625 33.003124Q127.78438 33.596874 127.78438 34.503124Q127.78438 35.378124 127.26875 36.159374Q126.75313 36.940624 125.78438 37.3625Q124.81563 37.784374 123.59688 37.784374Q121.58125 37.784374 120.51875 36.940624Q119.45625 36.096874 119.15938 34.45625ZM129.8625 37.55L129.8625 23.2375L131.62813 23.2375L131.62813 28.3625Q132.8625 26.940624 134.7375 26.940624Q135.87813 26.940624 136.72188 27.39375Q137.58125 27.846874 137.94063 28.659374Q138.31563 29.45625 138.31563 30.971874L138.31563 37.55L136.56563 37.55L136.56563 30.971874Q136.56563 29.659374 135.9875 29.065624Q135.40938 28.45625 134.37813 28.45625Q133.59688 28.45625 132.89375 28.8625Q132.20625 29.26875 131.90938 29.971874Q131.62813 30.659374 131.62813 31.878124L131.62813 37.55L129.8625 37.55ZM146.64375 36.26875Q145.65938 37.096874 144.75313 37.440624Q143.84688 37.784374 142.81563 37.784374Q141.1125 37.784374 140.19063 36.95625Q139.26875 36.1125 139.26875 34.815624Q139.26875 34.05 139.6125 33.425Q139.97188 32.8 140.53438 32.425Q141.09688 32.034374 141.8 31.83125Q142.31563 31.70625 143.3625 31.565624Q145.4875 31.315624 146.4875 30.971874Q146.50313 30.6125 146.50313 30.503124Q146.50313 29.440624 146.00313 28.9875Q145.33125 28.39375 144.00313 28.39375Q142.75313 28.39375 142.15938 28.83125Q141.58125 29.26875 141.3 30.378124L139.58125 30.14375Q139.81563 29.034374 140.34688 28.3625Q140.87813 27.675 141.89375 27.315624Q142.90938 26.940624 144.25313 26.940624Q145.58125 26.940624 146.40938 27.253124Q147.2375 27.565624 147.62813 28.05Q148.01875 28.51875 148.175 29.2375Q148.26875 29.690624 148.26875 30.8625L148.26875 33.20625Q148.26875 35.659374 148.37813 36.315624Q148.4875 36.95625 148.83125 37.55L146.9875 37.55Q146.72188 37.003124 146.64375 36.26875ZM146.4875 32.346874Q145.53438 32.7375 143.6125 33.003124Q142.53438 33.159374 142.08125 33.3625Q141.64375 33.55 141.39375 33.925Q141.14375 34.3 141.14375 34.76875Q141.14375 35.471874 141.675 35.940624Q142.20625 36.409374 143.2375 36.409374Q144.25313 36.409374 145.03438 35.971874Q145.83125 35.51875 146.20625 34.753124Q146.4875 34.14375 146.4875 32.9875L146.4875 32.346874ZM150.84688 37.55L150.84688 27.175L152.425 27.175L152.425 28.753124Q153.03438 27.64375 153.55 27.3Q154.06563 26.940624 154.675 26.940624Q155.56563 26.940624 156.4875 27.503124L155.87813 29.14375Q155.2375 28.753124 154.59688 28.753124Q154.01875 28.753124 153.55 29.1125Q153.09688 29.45625 152.89375 30.065624Q152.6125 31.003124 152.6125 32.1125L152.6125 37.55L150.84688 37.55ZM164.97188 34.20625L166.78438 34.440624Q166.3625 36.01875 165.19063 36.909374Q164.03438 37.784374 162.22188 37.784374Q159.95625 37.784374 158.6125 36.39375Q157.28438 34.9875 157.28438 32.45625Q157.28438 29.83125 158.62813 28.39375Q159.97188 26.940624 162.12813 26.940624Q164.20625 26.940624 165.51875 28.3625Q166.84688 29.76875 166.84688 32.346874Q166.84688 32.503124 166.83125 32.815624L159.09688 32.815624Q159.19063 34.51875 160.06563 35.425Q160.94063 36.33125 162.2375 36.33125Q163.20625 36.33125 163.87813 35.83125Q164.56563 35.315624 164.97188 34.20625ZM159.19063 31.3625L164.9875 31.3625Q164.87813 30.065624 164.33125 29.409374Q163.4875 28.39375 162.14375 28.39375Q160.94063 28.39375 160.1125 29.20625Q159.28438 30.003124 159.19063 31.3625ZM175.59688 37.55L175.59688 36.2375Q174.6125 37.784374 172.69063 37.784374Q171.45625 37.784374 170.40938 37.096874Q169.37813 36.409374 168.8 35.190624Q168.2375 33.971874 168.2375 32.378124Q168.2375 30.815624 168.75313 29.55Q169.26875 28.284374 170.3 27.6125Q171.34688 26.940624 172.6125 26.940624Q173.55 26.940624 174.28438 27.346874Q175.01875 27.7375 175.4875 28.3625L175.4875 23.2375L177.22188 23.2375L177.22188 37.55L175.59688 37.55ZM170.03438 32.378124Q170.03438 34.3625 170.87813 35.346874Q171.72188 36.33125 172.8625 36.33125Q174.01875 36.33125 174.81563 35.39375Q175.62813 34.45625 175.62813 32.51875Q175.62813 30.39375 174.8 29.39375Q173.9875 28.39375 172.78438 28.39375Q171.6125 28.39375 170.81563 29.3625Q170.03438 30.315624 170.03438 32.378124ZM185.22188 32.3625Q185.22188 29.4875 186.81563 28.096874Q188.15938 26.940624 190.08125 26.940624Q192.22188 26.940624 193.56563 28.346874Q194.925 29.753124 194.925 32.221874Q194.925 34.221874 194.33125 35.378124Q193.7375 36.51875 192.58125 37.159374Q191.44063 37.784374 190.08125 37.784374Q187.89375 37.784374 186.55 36.39375Q185.22188 34.9875 185.22188 32.3625ZM187.01875 32.3625Q187.01875 34.3625 187.87813 35.346874Q188.75313 36.33125 190.08125 36.33125Q191.39375 36.33125 192.25313 35.346874Q193.12813 34.346874 193.12813 32.3Q193.12813 30.378124 192.25313 29.39375Q191.37813 28.39375 190.08125 28.39375Q188.75313 28.39375 187.87813 29.39375Q187.01875 30.378124 187.01875 32.3625ZM198.4875 37.55L196.8625 37.55L196.8625 23.2375L198.6125 23.2375L198.6125 28.346874Q199.7375 26.940624 201.45625 26.940624Q202.40938 26.940624 203.26875 27.33125Q204.12813 27.721874 204.675 28.425Q205.22188 29.1125 205.53438 30.096874Q205.84688 31.08125 205.84688 32.20625Q205.84688 34.878124 204.53438 36.33125Q203.22188 37.784374 201.37813 37.784374Q199.53438 37.784374 198.4875 36.253124L198.4875 37.55ZM198.47188 32.284374Q198.47188 34.14375 198.97188 34.9875Q199.81563 36.33125 201.22188 36.33125Q202.37813 36.33125 203.20625 35.33125Q204.05 34.33125 204.05 32.346874Q204.05 30.315624 203.2375 29.3625Q202.44063 28.39375 201.3 28.39375Q200.14375 28.39375 199.3 29.39375Q198.47188 30.39375 198.47188 32.284374ZM207.8625 25.26875L207.8625 23.2375L209.6125 23.2375L209.6125 25.26875L207.8625 25.26875ZM205.62813 41.58125L205.95625 40.08125Q206.4875 40.221874 206.8 40.221874Q207.33125 40.221874 207.59688 39.8625Q207.8625 39.503124 207.8625 38.08125L207.8625 27.175L209.6125 27.175L209.6125 38.1125Q209.6125 40.034374 209.1125 40.784374Q208.4875 41.753124 207.00313 41.753124Q206.3 41.753124 205.62813 41.58125ZM218.97188 34.20625L220.78438 34.440624Q220.3625 36.01875 219.19063 36.909374Q218.03438 37.784374 216.22188 37.784374Q213.95625 37.784374 212.6125 36.39375Q211.28438 34.9875 211.28438 32.45625Q211.28438 29.83125 212.62813 28.39375Q213.97188 26.940624 216.12813 26.940624Q218.20625 26.940624 219.51875 28.3625Q220.84688 29.76875 220.84688 32.346874Q220.84688 32.503124 220.83125 32.815624L213.09688 32.815624Q213.19063 34.51875 214.06563 35.425Q214.94063 36.33125 216.2375 36.33125Q217.20625 36.33125 217.87813 35.83125Q218.56563 35.315624 218.97188 34.20625ZM213.19063 31.3625L218.9875 31.3625Q218.87813 30.065624 218.33125 29.409374Q217.4875 28.39375 216.14375 28.39375Q214.94063 28.39375 214.1125 29.20625Q213.28438 30.003124 213.19063 31.3625ZM229.64375 33.753124L231.3625 33.971874Q231.08125 35.76875 229.90938 36.784374Q228.75313 37.784374 227.05 37.784374Q224.925 37.784374 223.62813 36.39375Q222.33125 35.003124 222.33125 32.409374Q222.33125 30.721874 222.87813 29.471874Q223.44063 28.20625 224.58125 27.58125Q225.72188 26.940624 227.06563 26.940624Q228.75313 26.940624 229.81563 27.8Q230.89375 28.659374 231.20625 30.221874L229.4875 30.4875Q229.25313 29.440624 228.62813 28.925Q228.00313 28.39375 227.12813 28.39375Q225.8 28.39375 224.97188 29.346874Q224.14375 30.3 224.14375 32.346874Q224.14375 34.440624 224.94063 35.39375Q225.7375 36.33125 227.03438 36.33125Q228.06563 36.33125 228.75313 35.70625Q229.45625 35.065624 229.64375 33.753124ZM236.70625 35.971874L236.95625 37.534374Q236.22188 37.690624 235.62813 37.690624Q234.675 37.690624 234.14375 37.39375Q233.62813 37.08125 233.40938 36.596874Q233.19063 36.096874 233.19063 34.51875L233.19063 28.55L231.90938 28.55L231.90938 27.175L233.19063 27.175L233.19063 24.6125L234.94063 23.55L234.94063 27.175L236.70625 27.175L236.70625 28.55L234.94063 28.55L234.94063 34.6125Q234.94063 35.3625 235.03438 35.58125Q235.12813 35.784374 235.33125 35.925Q235.55 36.05 235.94063 36.05Q236.22188 36.05 236.70625 35.971874ZM246.78438 37.55L243.6125 27.175L245.425 27.175L247.08125 33.159374L247.69063 35.39375Q247.7375 35.221874 248.22188 33.253124L249.87813 27.175L251.69063 27.175L253.2375 33.190624L253.75313 35.175L254.34688 33.175L256.1281 27.175L257.83124 27.175L254.59688 37.55L252.76875 37.55L251.1125 31.33125L250.72188 29.565624L248.6125 37.55L246.78438 37.55ZM259.8781 25.253124L259.8781 23.2375L261.64374 23.2375L261.64374 25.253124L259.8781 25.253124ZM259.8781 37.55L259.8781 27.175L261.64374 27.175L261.64374 37.55L259.8781 37.55ZM267.70624 35.971874L267.95624 37.534374Q267.22186 37.690624 266.6281 37.690624Q265.675 37.690624 265.14374 37.39375Q264.6281 37.08125 264.40936 36.596874Q264.1906 36.096874 264.1906 34.51875L264.1906 28.55L262.90936 28.55L262.90936 27.175L264.1906 27.175L264.1906 24.6125L265.9406 23.55L265.9406 27.175L267.70624 27.175L267.70624 28.55L265.9406 28.55L265.9406 34.6125Q265.9406 35.3625 266.03436 35.58125Q266.1281 35.784374 266.33124 35.925Q266.55 36.05 266.9406 36.05Q267.22186 36.05 267.70624 35.971874ZM269.8625 37.55L269.8625 23.2375L271.6281 23.2375L271.6281 28.3625Q272.8625 26.940624 274.7375 26.940624Q275.8781 26.940624 276.72186 27.39375Q277.58124 27.846874 277.9406 28.659374Q278.3156 29.45625 278.3156 30.971874L278.3156 37.55L276.5656 37.55L276.5656 30.971874Q276.5656 29.659374 275.9875 29.065624Q275.40936 28.45625 274.3781 28.45625Q273.59686 28.45625 272.89374 28.8625Q272.20624 29.26875 271.90936 29.971874Q271.6281 30.659374 271.6281 31.878124L271.6281 37.55L269.8625 37.55ZM295.1281 31.284374L285.64374 35.346874L285.64374 33.596874L293.15936 30.471874L285.64374 27.39375L285.64374 25.64375L295.1281 29.64375L295.1281 31.284374ZM303.3781 33.8L305.22186 33.64375Q305.425 34.9875 306.175 35.675Q306.925 36.346874 307.9875 36.346874Q309.2531 36.346874 310.1281 35.39375Q311.0031 34.440624 311.0031 32.846874Q311.0031 31.346874 310.15936 30.4875Q309.3156 29.6125 307.95624 29.6125Q307.09686 29.6125 306.40936 30.003124Q305.7375 30.378124 305.34686 31.003124L303.6906 30.784374L305.08124 23.425L312.20624 23.425L312.20624 25.1125L306.4875 25.1125L305.72186 28.95625Q307.0031 28.05 308.425 28.05Q310.3 28.05 311.58124 29.3625Q312.8781 30.659374 312.8781 32.690624Q312.8781 34.64375 311.7375 36.05Q310.3625 37.8 307.9875 37.8Q306.03436 37.8 304.78436 36.70625Q303.55 35.6125 303.3781 33.8ZM314.3781 30.4875Q314.3781 27.95625 314.89374 26.409374Q315.425 24.846874 316.45624 24.01875Q317.4875 23.175 319.05 23.175Q320.20624 23.175 321.0656 23.64375Q321.9406 24.096874 322.5031 24.971874Q323.0656 25.846874 323.39374 27.1125Q323.72186 28.3625 323.72186 30.4875Q323.72186 33.003124 323.1906 34.55Q322.675 36.096874 321.64374 36.95625Q320.6281 37.8 319.05 37.8Q316.97186 37.8 315.8 36.315624Q314.3781 34.51875 314.3781 30.4875ZM316.1906 30.4875Q316.1906 34.01875 317.0031 35.190624Q317.83124 36.346874 319.05 36.346874Q320.2531 36.346874 321.08124 35.175Q321.90936 34.003124 321.90936 30.4875Q321.90936 26.95625 321.08124 25.8Q320.2531 24.628124 319.03436 24.628124Q317.8156 24.628124 317.09686 25.659374Q316.1906 26.95625 316.1906 30.4875ZM325.3781 30.4875Q325.3781 27.95625 325.89374 26.409374Q326.425 24.846874 327.45624 24.01875Q328.4875 23.175 330.05 23.175Q331.20624 23.175 332.0656 23.64375Q332.9406 24.096874 333.5031 24.971874Q334.0656 25.846874 334.39374 27.1125Q334.72186 28.3625 334.72186 30.4875Q334.72186 33.003124 334.1906 34.55Q333.675 36.096874 332.64374 36.95625Q331.6281 37.8 330.05 37.8Q327.97186 37.8 326.8 36.315624Q325.3781 34.51875 325.3781 30.4875ZM327.1906 30.4875Q327.1906 34.01875 328.0031 35.190624Q328.83124 36.346874 330.05 36.346874Q331.2531 36.346874 332.08124 35.175Q332.90936 34.003124 332.90936 30.4875Q332.90936 26.95625 332.08124 25.8Q331.2531 24.628124 330.03436 24.628124Q328.8156 24.628124 328.09686 25.659374Q327.1906 26.95625 327.1906 30.4875ZM336.8781 37.55L336.8781 23.2375L338.64374 23.2375L338.64374 31.39375L342.8 27.175L345.0656 27.175L341.1125 31.01875L345.47186 37.55L343.3 37.55L339.8781 32.253124L338.64374 33.440624L338.64374 37.55L336.8781 37.55ZM352.15936 34.45625L353.90936 34.175Q354.05 35.221874 354.72186 35.784374Q355.39374 36.33125 356.59686 36.33125Q357.8 36.33125 358.3781 35.846874Q358.97186 35.346874 358.97186 34.690624Q358.97186 34.096874 358.45624 33.753124Q358.09686 33.51875 356.65936 33.159374Q354.72186 32.659374 353.97186 32.315624Q353.2375 31.95625 352.84686 31.33125Q352.45624 30.690624 352.45624 29.925Q352.45624 29.2375 352.76874 28.64375Q353.09686 28.05 353.64374 27.659374Q354.05 27.3625 354.7531 27.159374Q355.47186 26.940624 356.28436 26.940624Q357.5031 26.940624 358.425 27.3Q359.34686 27.64375 359.78436 28.253124Q360.22186 28.846874 360.39374 29.846874L358.675 30.08125Q358.55 29.284374 357.9875 28.846874Q357.425 28.39375 356.40936 28.39375Q355.1906 28.39375 354.675 28.8Q354.15936 29.190624 354.15936 29.721874Q354.15936 30.065624 354.3781 30.346874Q354.58124 30.628124 355.05 30.815624Q355.3156 30.909374 356.59686 31.253124Q358.47186 31.753124 359.20624 32.08125Q359.9406 32.39375 360.3625 33.003124Q360.78436 33.596874 360.78436 34.503124Q360.78436 35.378124 360.26874 36.159374Q359.7531 36.940624 358.78436 37.3625Q357.8156 37.784374 356.59686 37.784374Q354.58124 37.784374 353.51874 36.940624Q352.45624 36.096874 352.15936 34.45625ZM362.78436 41.55L362.59686 39.89375Q363.175 40.05 363.59686 40.05Q364.1906 40.05 364.53436 39.846874Q364.89374 39.659374 365.1125 39.315624Q365.28436 39.05 365.65936 38.003124Q365.70624 37.846874 365.8156 37.565624L361.8781 27.175L363.76874 27.175L365.925 33.190624Q366.34686 34.33125 366.675 35.58125Q366.9875 34.378124 367.39374 33.221874L369.6125 27.175L371.3781 27.175L367.425 37.721874Q366.8 39.440624 366.4406 40.08125Q365.97186 40.95625 365.3625 41.346874Q364.76874 41.753124 363.925 41.753124Q363.40936 41.753124 362.78436 41.55ZM372.8625 37.55L372.8625 27.175L374.4406 27.175L374.4406 28.628124Q374.925 27.878124 375.7375 27.409374Q376.55 26.940624 377.58124 26.940624Q378.7375 26.940624 379.47186 27.425Q380.20624 27.89375 380.51874 28.753124Q381.7531 26.940624 383.72186 26.940624Q385.26874 26.940624 386.09686 27.8Q386.925 28.659374 386.925 30.425L386.925 37.55L385.175 37.55L385.175 31.01875Q385.175 29.95625 385.0031 29.503124Q384.83124 29.034374 384.3781 28.753124Q383.9406 28.471874 383.33124 28.471874Q382.2375 28.471874 381.5031 29.20625Q380.78436 29.925 380.78436 31.51875L380.78436 37.55L379.03436 37.55L379.03436 30.815624Q379.03436 29.64375 378.59686 29.065624Q378.175 28.471874 377.1906 28.471874Q376.45624 28.471874 375.8156 28.8625Q375.1906 29.253124 374.90936 30.003124Q374.6281 30.753124 374.6281 32.175L374.6281 37.55L372.8625 37.55ZM390.4875 37.55L388.8625 37.55L388.8625 23.2375L390.6125 23.2375L390.6125 28.346874Q391.7375 26.940624 393.45624 26.940624Q394.40936 26.940624 395.26874 27.33125Q396.1281 27.721874 396.675 28.425Q397.22186 29.1125 397.53436 30.096874Q397.84686 31.08125 397.84686 32.20625Q397.84686 34.878124 396.53436 36.33125Q395.22186 37.784374 393.3781 37.784374Q391.53436 37.784374 390.4875 36.253124L390.4875 37.55ZM390.47186 32.284374Q390.47186 34.14375 390.97186 34.9875Q391.8156 36.33125 393.22186 36.33125Q394.3781 36.33125 395.20624 35.33125Q396.05 34.33125 396.05 32.346874Q396.05 30.315624 395.2375 29.3625Q394.4406 28.39375 393.3 28.39375Q392.14374 28.39375 391.3 29.39375Q390.47186 30.39375 390.47186 32.284374ZM399.22186 32.3625Q399.22186 29.4875 400.8156 28.096874Q402.15936 26.940624 404.08124 26.940624Q406.22186 26.940624 407.5656 28.346874Q408.925 29.753124 408.925 32.221874Q408.925 34.221874 408.33124 35.378124Q407.7375 36.51875 406.58124 37.159374Q405.4406 37.784374 404.08124 37.784374Q401.89374 37.784374 400.55 36.39375Q399.22186 34.9875 399.22186 32.3625ZM401.01874 32.3625Q401.01874 34.3625 401.8781 35.346874Q402.7531 36.33125 404.08124 36.33125Q405.39374 36.33125 406.2531 35.346874Q407.1281 34.346874 407.1281 32.3Q407.1281 30.378124 406.2531 29.39375Q405.3781 28.39375 404.08124 28.39375Q402.7531 28.39375 401.8781 29.39375Q401.01874 30.378124 401.01874 32.3625ZM410.83124 37.55L410.83124 23.2375L412.58124 23.2375L412.58124 37.55L410.83124 37.55ZM414.15936 34.45625L415.90936 34.175Q416.05 35.221874 416.72186 35.784374Q417.39374 36.33125 418.59686 36.33125Q419.8 36.33125 420.3781 35.846874Q420.97186 35.346874 420.97186 34.690624Q420.97186 34.096874 420.45624 33.753124Q420.09686 33.51875 418.65936 33.159374Q416.72186 32.659374 415.97186 32.315624Q415.2375 31.95625 414.84686 31.33125Q414.45624 30.690624 414.45624 29.925Q414.45624 29.2375 414.76874 28.64375Q415.09686 28.05 415.64374 27.659374Q416.05 27.3625 416.7531 27.159374Q417.47186 26.940624 418.28436 26.940624Q419.5031 26.940624 420.425 27.3Q421.34686 27.64375 421.78436 28.253124Q422.22186 28.846874 422.39374 29.846874L420.675 30.08125Q420.55 29.284374 419.9875 28.846874Q419.425 28.39375 418.40936 28.39375Q417.1906 28.39375 416.675 28.8Q416.15936 29.190624 416.15936 29.721874Q416.15936 30.065624 416.3781 30.346874Q416.58124 30.628124 417.05 30.815624Q417.3156 30.909374 418.59686 31.253124Q420.47186 31.753124 421.20624 32.08125Q421.9406 32.39375 422.3625 33.003124Q422.78436 33.596874 422.78436 34.503124Q422.78436 35.378124 422.26874 36.159374Q421.7531 36.940624 420.78436 37.3625Q419.8156 37.784374 418.59686 37.784374Q416.58124 37.784374 415.51874 36.940624Q414.45624 36.096874 414.15936 34.45625ZM426.01874 41.753124L424.76874 41.753124Q427.675 37.065624 427.675 32.378124Q427.675 30.534374 427.26874 28.7375Q426.925 27.26875 426.33124 25.925Q425.95624 25.034374 424.76874 22.9875L426.01874 22.9875Q427.8625 25.440624 428.7375 27.909374Q429.4875 30.034374 429.4875 32.3625Q429.4875 35.003124 428.47186 37.471874Q427.47186 39.925 426.01874 41.753124Z" fill-rule="nonzero"/></svg>