<svg version="1.1" viewBox="0.0 0.0 600.0 371.0" fill="none" stroke="none" stroke-linecap="square" stroke-miterlimit="10" width="600" height="371" xmlns:xlink="http://www.w3.org/1999/xlink" xmlns="http://www.w3.org/2000/svg"><path fill="#ffffff" d="M0 0L600.0 0L600.0 371.0L0 371.0L0 0Z" fill-rule="nonzero"/><path stroke="#333333" stroke-width="1.0" stroke-linecap="butt" d="M115.5 318.5L581.5 318.5" fill-rule="nonzero"/><path stroke="#cccccc" stroke-width="1.0" stroke-linecap="butt" d="M115.5 255.5L581.5 255.5" fill-rule="nonzero"/><path stroke="#cccccc" stroke-width="1.0" stroke-linecap="butt" d="M115.5 192.5L581.5 192.5" fill-rule="nonzero"/><path stroke="#cccccc" stroke-width="1.0" stroke-linecap="butt" d="M115.5 129.5L581.5 129.5" fill-rule="nonzero"/><path stroke="#cccccc" stroke-width="1.0" stroke-linecap="butt" d="M115.5 66.5L581.5 66.5" fill-rule="nonzero"/><clipPath id="id_0"><path d="M115.55 66.916664L581.45 66.916664L581.45 318.45L115.55 318.45L115.55 66.916664Z" clip-rule="nonzero"/></clipPath><path stroke="#000000" stroke-width="2.0" stroke-linecap="butt" stroke-opacity="0.0" clip-path="url(#id_0)" d="M254.0 318.0L164.0 318.0L164.0 126.0C164.0 124.89543 164.89543 124.0 166.0 124.0L252.0 124.0C253.10457 124.0 254.0 124.89543 254.0 126.0Z" fill-rule="nonzero"/><path fill="#4285f4" clip-path="url(#id_0)" d="M254.0 318.0L164.0 318.0L164.0 126.0C164.0 124.89543 164.89543 124.0 166.0 124.0L252.0 124.0C253.10457 124.0 254.0 124.89543 254.0 126.0Z" fill-rule="nonzero"/><path stroke="#000000" stroke-width="2.0" stroke-linecap="butt" stroke-opacity="0.0" clip-path="url(#id_0)" d="M394.0 318.0L304.0 318.0L304.0 159.0C304.0 157.89543 304.89542 157.0 306.0 157.0L392.0 157.0C393.10458 157.0 394.0 157.89543 394.0 159.0Z" fill-rule="nonzero"/><path fill="#ea4335" clip-path="url(#id_0)" d="M394.0 318.0L304.0 318.0L304.0 159.0C304.0 157.89543 304.89542 157.0 306.0 157.0L392.0 157.0C393.10458 157.0 394.0 157.89543 394.0 159.0Z" fill-rule="nonzero"/><path stroke="#000000" stroke-width="2.0" stroke-linecap="butt" stroke-opacity="0.0" clip-path="url(#id_0)" d="M533.0 318.0L443.0 318.0L443.0 219.0C443.0 217.89543 443.89542 217.0 445.0 217.0L531.0 217.0C532.10455 217.0 533.0 217.89543 533.0 219.0Z" fill-rule="nonzero"/><path fill="#34a853" clip-path="url(#id_0)" d="M533.0 318.0L443.0 318.0L443.0 219.0C443.0 217.89543 443.89542 217.0 445.0 217.0L531.0 217.0C532.10455 217.0 533.0 217.89543 533.0 219.0Z" fill-rule="nonzero"/><path fill="#000000" d="M32.95626 240.77708L32.80001 238.99583Q33.86251 238.87083 34.55001 238.41771Q35.23751 237.94896 35.67501 236.98021Q36.096886 235.99583 36.096886 234.76146Q36.096886 233.68333 35.784386 232.85521Q35.45626 232.02708 34.89376 231.62083Q34.33126 231.21458 33.659386 231.21458Q32.98751 231.21458 32.48751 231.60521Q31.987513 231.99583 31.643763 232.88646Q31.409388 233.46458 30.940638 235.44896Q30.471888 237.41771 30.050013 238.19896Q29.518763 239.23021 28.721888 239.73021Q27.925013 240.23021 26.940638 240.23021Q25.846888 240.23021 24.909388 239.62083Q23.971888 239.01146 23.487513 237.82396Q22.987513 236.63646 22.987513 235.19896Q22.987513 233.60521 23.503138 232.38646Q24.018763 231.16771 25.018763 230.52708Q26.003138 229.87083 27.268763 229.82396L27.409388 231.63646Q26.050013 231.77708 25.362513 232.62083Q24.659388 233.46458 24.659388 235.12083Q24.659388 236.83958 25.300013 237.63646Q25.925013 238.41771 26.800013 238.41771Q27.581263 238.41771 28.081263 237.85521Q28.581263 237.30833 29.096888 234.99583Q29.612513 232.68333 30.003138 231.82396Q30.581263 230.57396 31.471888 229.98021Q32.346886 229.38646 33.503136 229.38646Q34.64376 229.38646 35.659386 230.04271Q36.67501 230.69896 37.23751 231.93333Q37.80001 233.15208 37.80001 234.68333Q37.80001 236.62083 37.23751 237.93333Q36.659386 239.24583 35.51876 239.99583Q34.378136 240.74583 32.95626 240.77708ZM34.20626 220.26146L34.440636 218.44896Q36.01876 218.87083 36.909386 220.04271Q37.784386 221.19896 37.784386 223.01146Q37.784386 225.27708 36.39376 226.62083Q34.98751 227.94896 32.45626 227.94896Q29.831263 227.94896 28.393763 226.60521Q26.940638 225.26146 26.940638 223.10521Q26.940638 221.02708 28.362513 219.71458Q29.768763 218.38646 32.346886 218.38646Q32.503136 218.38646 32.815636 218.40208L32.815636 226.13646Q34.51876 226.04271 35.42501 225.16771Q36.33126 224.29271 36.33126 222.99583Q36.33126 222.02708 35.83126 221.35521Q35.315636 220.66771 34.20626 220.26146ZM31.362513 226.04271L31.362513 220.24583Q30.065638 220.35521 29.409388 220.90208Q28.393763 221.74583 28.393763 223.08958Q28.393763 224.29271 29.206263 225.12083Q30.003138 225.94896 31.362513 226.04271ZM33.753136 209.58958L33.971886 207.87083Q35.76876 208.15208 36.784386 209.32396Q37.784386 210.48021 37.784386 212.18333Q37.784386 214.30833 36.39376 215.60521Q35.003136 216.90208 32.409386 216.90208Q30.721888 216.90208 29.471888 216.35521Q28.206263 215.79271 27.581263 214.65208Q26.940638 213.51146 26.940638 212.16771Q26.940638 210.48021 27.800013 209.41771Q28.659388 208.33958 30.221888 208.02708L30.487513 209.74583Q29.440638 209.98021 28.925013 210.60521Q28.393763 211.23021 28.393763 212.10521Q28.393763 213.43333 29.346888 214.26146Q30.300013 215.08958 32.346886 215.08958Q34.440636 215.08958 35.39376 214.29271Q36.33126 213.49583 36.33126 212.19896Q36.33126 211.16771 35.70626 210.48021Q35.065636 209.77708 33.753136 209.58958ZM32.36251 207.01146Q29.487513 207.01146 28.096888 205.41771Q26.940638 204.07396 26.940638 202.15208Q26.940638 200.01146 28.346888 198.66771Q29.753138 197.30833 32.221886 197.30833Q34.221886 197.30833 35.378136 197.90208Q36.51876 198.49583 37.159386 199.65208Q37.784386 200.79271 37.784386 202.15208Q37.784386 204.33958 36.39376 205.68333Q34.98751 207.01146 32.36251 207.01146ZM32.36251 205.21458Q34.36251 205.21458 35.346886 204.35521Q36.33126 203.48021 36.33126 202.15208Q36.33126 200.83958 35.346886 199.98021Q34.346886 199.10521 32.30001 199.10521Q30.378138 199.10521 29.393763 199.98021Q28.393763 200.85521 28.393763 202.15208Q28.393763 203.48021 29.393763 204.35521Q30.378138 205.21458 32.36251 205.21458ZM37.55001 195.37083L27.175013 195.37083L27.175013 193.77708L28.659388 193.77708Q26.940638 192.63646 26.940638 190.48021Q26.940638 189.54271 27.284388 188.76146Q27.612513 187.96458 28.159388 187.57396Q28.706263 187.18333 29.456263 187.02708Q29.956263 186.93333 31.175013 186.93333L37.55001 186.93333L37.55001 188.69896L31.237513 188.69896Q30.159388 188.69896 29.628138 188.90208Q29.096888 189.10521 28.784388 189.63646Q28.471888 190.15208 28.471888 190.85521Q28.471888 191.98021 29.190638 192.79271Q29.893763 193.60521 31.878138 193.60521L37.55001 193.60521L37.55001 195.37083ZM37.55001 178.63646L36.23751 178.63646Q37.784386 179.62083 37.784386 181.54271Q37.784386 182.77708 37.096886 183.82396Q36.409386 184.85521 35.190636 185.43333Q33.971886 185.99583 32.378136 185.99583Q30.815638 185.99583 29.550013 185.48021Q28.284388 184.96458 27.612513 183.93333Q26.940638 182.88646 26.940638 181.62083Q26.940638 180.68333 27.346888 179.94896Q27.737513 179.21458 28.362513 178.74583L23.237513 178.74583L23.237513 177.01146L37.55001 177.01146L37.55001 178.63646ZM32.378136 184.19896Q34.36251 184.19896 35.346886 183.35521Q36.33126 182.51146 36.33126 181.37083Q36.33126 180.21458 35.39376 179.41771Q34.45626 178.60521 32.51876 178.60521Q30.393763 178.60521 29.393763 179.43333Q28.393763 180.24583 28.393763 181.44896Q28.393763 182.62083 29.362513 183.41771Q30.315638 184.19896 32.378136 184.19896ZM34.45626 175.07396L34.17501 173.32396Q35.221886 173.18333 35.784386 172.51146Q36.33126 171.83958 36.33126 170.63646Q36.33126 169.43333 35.846886 168.85521Q35.346886 168.26146 34.690636 168.26146Q34.096886 168.26146 33.753136 168.77708Q33.51876 169.13646 33.159386 170.57396Q32.659386 172.51146 32.315636 173.26146Q31.956263 173.99583 31.331263 174.38646Q30.690638 174.77708 29.925013 174.77708Q29.237513 174.77708 28.643763 174.46458Q28.050013 174.13646 27.659388 173.58958Q27.362513 173.18333 27.159388 172.48021Q26.940638 171.76146 26.940638 170.94896Q26.940638 169.73021 27.300013 168.80833Q27.643763 167.88646 28.253138 167.44896Q28.846888 167.01146 29.846888 166.83958L30.081263 168.55833Q29.284388 168.68333 28.846888 169.24583Q28.393763 169.80833 28.393763 170.82396Q28.393763 172.04271 28.800013 172.55833Q29.190638 173.07396 29.721888 173.07396Q30.065638 173.07396 30.346888 172.85521Q30.628138 172.65208 30.815638 172.18333Q30.909388 171.91771 31.253138 170.63646Q31.753138 168.76146 32.08126 168.02708Q32.39376 167.29271 33.003136 166.87083Q33.596886 166.44896 34.503136 166.44896Q35.378136 166.44896 36.159386 166.96458Q36.940636 167.48021 37.36251 168.44896Q37.784386 169.41771 37.784386 170.63646Q37.784386 172.65208 36.940636 173.71458Q36.096886 174.77708 34.45626 175.07396Z" fill-rule="nonzero"/><path fill="#000000" d="M95.37813 318.3875Q95.37813 315.85626 95.89375 314.3094Q96.425 312.7469 97.45625 311.91876Q98.4875 311.075 100.05 311.075Q101.20625 311.075 102.06563 311.54376Q102.94063 311.9969 103.50313 312.8719Q104.06563 313.7469 104.39375 315.0125Q104.72188 316.2625 104.72188 318.3875Q104.72188 320.90314 104.19063 322.45Q103.675 323.9969 102.64375 324.85626Q101.62813 325.7 100.05 325.7Q97.97188 325.7 96.8 324.21564Q95.37813 322.41876 95.37813 318.3875ZM97.19063 318.3875Q97.19063 321.91876 98.00313 323.09064Q98.83125 324.2469 100.05 324.2469Q101.25313 324.2469 102.08125 323.075Q102.90938 321.90314 102.90938 318.3875Q102.90938 314.85626 102.08125 313.7Q101.25313 312.52814 100.03438 312.52814Q98.81563 312.52814 98.09688 313.5594Q97.19063 314.85626 97.19063 318.3875Z" fill-rule="nonzero"/><path fill="#000000" d="M104.6125 260.87918L104.6125 262.56668L95.15938 262.56668Q95.14375 261.92606 95.3625 261.34793Q95.72188 260.37918 96.51875 259.44168Q97.31563 258.50418 98.81563 257.2698Q101.15938 255.36356 101.97188 254.25418Q102.8 253.12918 102.8 252.12918Q102.8 251.0823 102.05 250.36356Q101.3 249.6448 100.09688 249.6448Q98.83125 249.6448 98.06563 250.41043Q97.3 251.17606 97.3 252.5198L95.4875 252.3323Q95.675 250.31668 96.87813 249.25418Q98.09688 248.19168 100.14375 248.19168Q102.19063 248.19168 103.39375 249.3323Q104.59688 250.47293 104.59688 252.16043Q104.59688 253.0198 104.2375 253.86356Q103.89375 254.69168 103.08125 255.61356Q102.26875 256.5198 100.37813 258.12918Q98.78438 259.4573 98.33125 259.92606Q97.89375 260.3948 97.59688 260.87918L104.6125 260.87918Z" fill-rule="nonzero"/><path fill="#000000" d="M101.01875 199.68333L101.01875 196.26146L94.8 196.26146L94.8 194.63646L101.33125 185.37083L102.76875 185.37083L102.76875 194.63646L104.70625 194.63646L104.70625 196.26146L102.76875 196.26146L102.76875 199.68333L101.01875 199.68333ZM101.01875 194.63646L101.01875 188.18333L96.53438 194.63646L101.01875 194.63646Z" fill-rule="nonzero"/><path fill="#000000" d="M104.50313 125.9875L102.75313 126.12813Q102.51875 125.09688 102.09688 124.62813Q101.37813 123.8625 100.33125 123.8625Q99.4875 123.8625 98.8625 124.33125Q98.03438 124.94063 97.55 126.1125Q97.06563 127.26875 97.05 129.40938Q97.69063 128.45625 98.59688 127.9875Q99.51875 127.51875 100.53438 127.51875Q102.28438 127.51875 103.51875 128.81563Q104.75313 130.09688 104.75313 132.14375Q104.75313 133.50313 104.175 134.65938Q103.59688 135.81563 102.58125 136.44063Q101.56563 137.05 100.26875 137.05Q98.08125 137.05 96.69063 135.44063Q95.3 133.81563 95.3 130.09688Q95.3 125.95625 96.83125 124.06563Q98.175 122.425 100.44063 122.425Q102.12813 122.425 103.20625 123.37813Q104.28438 124.31563 104.50313 125.9875ZM97.33125 132.15938Q97.33125 133.06563 97.70625 133.89375Q98.09688 134.72188 98.78438 135.15938Q99.4875 135.59688 100.2375 135.59688Q101.3625 135.59688 102.15938 134.70625Q102.95625 133.8 102.95625 132.25313Q102.95625 130.76875 102.15938 129.925Q101.37813 129.06563 100.175 129.06563Q98.9875 129.06563 98.15938 129.925Q97.33125 130.76875 97.33125 132.15938Z" fill-rule="nonzero"/><path fill="#000000" d="M98.08125 66.15104Q96.9875 65.74479 96.45625 65.010414Q95.94063 64.260414 95.94063 63.229164Q95.94063 61.666664 97.06563 60.604164Q98.19063 59.541664 100.05 59.541664Q101.925 59.541664 103.06563 60.635414Q104.20625 61.71354 104.20625 63.27604Q104.20625 64.27604 103.675 65.010414Q103.15938 65.74479 102.09688 66.15104Q103.425 66.58854 104.1125 67.541664Q104.8 68.49479 104.8 69.822914Q104.8 71.666664 103.4875 72.916664Q102.19063 74.166664 100.08125 74.166664Q97.95625 74.166664 96.65938 72.916664Q95.3625 71.65104 95.3625 69.77604Q95.3625 68.385414 96.06563 67.447914Q96.78438 66.49479 98.08125 66.15104ZM97.7375 63.166664Q97.7375 64.18229 98.39375 64.83854Q99.05 65.479164 100.08125 65.479164Q101.09688 65.479164 101.75313 64.83854Q102.40938 64.197914 102.40938 63.27604Q102.40938 62.30729 101.7375 61.65104Q101.06563 60.979164 100.06563 60.979164Q99.06563 60.979164 98.39375 61.635414Q97.7375 62.27604 97.7375 63.166664ZM97.175 69.791664Q97.175 70.541664 97.51875 71.24479Q97.87813 71.947914 98.58125 72.33854Q99.28438 72.71354 100.09688 72.71354Q101.3625 72.71354 102.175 71.90104Q103.00313 71.08854 103.00313 69.83854Q103.00313 68.572914 102.15938 67.74479Q101.31563 66.916664 100.03438 66.916664Q98.8 66.916664 97.9875 67.74479Q97.175 68.55729 97.175 69.791664Z" fill-rule="nonzero"/><path fill="#000000" d="M201.20662 347.45L201.20662 333.1375L202.95662 333.1375L202.95662 347.45L201.20662 347.45ZM205.20662 347.45L205.20662 333.1375L206.95662 333.1375L206.95662 347.45L205.20662 347.45ZM215.97224 347.45L215.97224 346.1375Q214.98787 347.6844 213.066 347.6844Q211.83162 347.6844 210.78474 346.9969Q209.7535 346.3094 209.17537 345.09064Q208.61287 343.8719 208.61287 342.27814Q208.61287 340.71564 209.1285 339.45Q209.64412 338.1844 210.67537 337.5125Q211.72224 336.84064 212.98787 336.84064Q213.92537 336.84064 214.65974 337.2469Q215.39412 337.6375 215.86287 338.2625L215.86287 333.1375L217.59724 333.1375L217.59724 347.45L215.97224 347.45ZM210.40974 342.27814Q210.40974 344.2625 211.2535 345.2469Q212.09724 346.23126 213.23787 346.23126Q214.39412 346.23126 215.191 345.29376Q216.0035 344.35626 216.0035 342.41876Q216.0035 340.29376 215.17537 339.29376Q214.36287 338.29376 213.15974 338.29376Q211.98787 338.29376 211.191 339.2625Q210.40974 340.21564 210.40974 342.27814Z" fill-rule="nonzero"/><path fill="#000000" d="M328.8125 347.45L328.8125 337.075L330.39062 337.075L330.39062 338.52814Q330.875 337.77814 331.6875 337.3094Q332.5 336.84064 333.53125 336.84064Q334.6875 336.84064 335.42188 337.325Q336.15625 337.79376 336.46875 338.65314Q337.70312 336.84064 339.67188 336.84064Q341.21875 336.84064 342.04688 337.7Q342.875 338.5594 342.875 340.325L342.875 347.45L341.125 347.45L341.125 340.91876Q341.125 339.85626 340.95312 339.40314Q340.78125 338.9344 340.32812 338.65314Q339.89062 338.3719 339.28125 338.3719Q338.1875 338.3719 337.45312 339.10626Q336.73438 339.825 336.73438 341.41876L336.73438 347.45L334.98438 347.45L334.98438 340.71564Q334.98438 339.54376 334.54688 338.96564Q334.125 338.3719 333.14062 338.3719Q332.40625 338.3719 331.76562 338.7625Q331.14062 339.15314 330.85938 339.90314Q330.57812 340.65314 330.57812 342.075L330.57812 347.45L328.8125 347.45ZM344.17188 342.2625Q344.17188 339.3875 345.76562 337.9969Q347.10938 336.84064 349.03125 336.84064Q351.17188 336.84064 352.51562 338.2469Q353.875 339.65314 353.875 342.1219Q353.875 344.1219 353.28125 345.27814Q352.6875 346.41876 351.53125 347.0594Q350.39062 347.6844 349.03125 347.6844Q346.84375 347.6844 345.5 346.29376Q344.17188 344.8875 344.17188 342.2625ZM345.96875 342.2625Q345.96875 344.2625 346.82812 345.2469Q347.70312 346.23126 349.03125 346.23126Q350.34375 346.23126 351.20312 345.2469Q352.07812 344.2469 352.07812 342.2Q352.07812 340.27814 351.20312 339.29376Q350.32812 338.29376 349.03125 338.29376Q347.70312 338.29376 346.82812 339.29376Q345.96875 340.27814 345.96875 342.2625ZM355.78125 347.45L355.78125 333.1375L357.53125 333.1375L357.53125 347.45L355.78125 347.45ZM366.54688 347.45L366.54688 346.1375Q365.5625 347.6844 363.64062 347.6844Q362.40625 347.6844 361.35938 346.9969Q360.32812 346.3094 359.75 345.09064Q359.1875 343.8719 359.1875 342.27814Q359.1875 340.71564 359.70312 339.45Q360.21875 338.1844 361.25 337.5125Q362.29688 336.84064 363.5625 336.84064Q364.5 336.84064 365.23438 337.2469Q365.96875 337.6375 366.4375 338.2625L366.4375 333.1375L368.17188 333.1375L368.17188 347.45L366.54688 347.45ZM360.98438 342.27814Q360.98438 344.2625 361.82812 345.2469Q362.67188 346.23126 363.8125 346.23126Q364.96875 346.23126 365.76562 345.29376Q366.57812 344.35626 366.57812 342.41876Q366.57812 340.29376 365.75 339.29376Q364.9375 338.29376 363.73438 338.29376Q362.5625 338.29376 361.76562 339.2625Q360.98438 340.21564 360.98438 342.27814Z" fill-rule="nonzero"/><path fill="#000000" d="M473.809 347.45L470.63712 337.075L472.44962 337.075L474.10587 343.0594L474.71524 345.29376Q474.76212 345.1219 475.2465 343.15314L476.90274 337.075L478.71524 337.075L480.26212 343.09064L480.77774 345.075L481.3715 343.075L483.15274 337.075L484.85587 337.075L481.6215 347.45L479.79337 347.45L478.13712 341.23126L477.7465 339.46564L475.63712 347.45L473.809 347.45ZM486.90274 335.15314L486.90274 333.1375L488.66837 333.1375L488.66837 335.15314L486.90274 335.15314ZM486.90274 347.45L486.90274 337.075L488.66837 337.075L488.66837 347.45L486.90274 347.45ZM490.85587 347.45L490.85587 333.1375L492.60587 333.1375L492.60587 347.45L490.85587 347.45ZM501.6215 347.45L501.6215 346.1375Q500.63712 347.6844 498.71524 347.6844Q497.48087 347.6844 496.434 346.9969Q495.40274 346.3094 494.82462 345.09064Q494.26212 343.8719 494.26212 342.27814Q494.26212 340.71564 494.77774 339.45Q495.29337 338.1844 496.32462 337.5125Q497.3715 336.84064 498.63712 336.84064Q499.57462 336.84064 500.309 337.2469Q501.04337 337.6375 501.51212 338.2625L501.51212 333.1375L503.2465 333.1375L503.2465 347.45L501.6215 347.45ZM496.059 342.27814Q496.059 344.2625 496.90274 345.2469Q497.7465 346.23126 498.88712 346.23126Q500.04337 346.23126 500.84024 345.29376Q501.65274 344.35626 501.65274 342.41876Q501.65274 340.29376 500.82462 339.29376Q500.01212 338.29376 498.809 338.29376Q497.63712 338.29376 496.84024 339.2625Q496.059 340.21564 496.059 342.27814Z" fill-rule="nonzero"/><path fill="#757575" d="M20.01875 37.55L20.01875 23.2375L21.909374 23.2375L21.909374 35.8625L28.95625 35.8625L28.95625 37.55L20.01875 37.55ZM30.878124 25.253124L30.878124 23.2375L32.64375 23.2375L32.64375 25.253124L30.878124 25.253124ZM30.878124 37.55L30.878124 27.175L32.64375 27.175L32.64375 37.55L30.878124 37.55ZM34.8625 37.55L34.8625 27.175L36.45625 27.175L36.45625 28.659374Q37.596874 26.940624 39.753124 26.940624Q40.690624 26.940624 41.471874 27.284374Q42.26875 27.6125 42.659374 28.159374Q43.05 28.70625 43.20625 29.45625Q43.3 29.95625 43.3 31.175L43.3 37.55L41.534374 37.55L41.534374 31.2375Q41.534374 30.159374 41.33125 29.628124Q41.128124 29.096874 40.596874 28.784374Q40.08125 28.471874 39.378124 28.471874Q38.253124 28.471874 37.440624 29.190624Q36.628124 29.89375 36.628124 31.878124L36.628124 37.55L34.8625 37.55ZM44.878124 37.55L44.878124 23.2375L46.64375 23.2375L46.64375 31.39375L50.8 27.175L53.065624 27.175L49.1125 31.01875L53.471874 37.55L51.3 37.55L47.878124 32.253124L46.64375 33.440624L46.64375 37.55L44.878124 37.55ZM54.878124 25.253124L54.878124 23.2375L56.64375 23.2375L56.64375 25.253124L54.878124 25.253124ZM54.878124 37.55L54.878124 27.175L56.64375 27.175L56.64375 37.55L54.878124 37.55ZM58.8625 37.55L58.8625 27.175L60.45625 27.175L60.45625 28.659374Q61.596874 26.940624 63.753124 26.940624Q64.69063 26.940624 65.47188 27.284374Q66.26875 27.6125 66.65938 28.159374Q67.05 28.70625 67.20625 29.45625Q67.3 29.95625 67.3 31.175L67.3 37.55L65.53438 37.55L65.53438 31.2375Q65.53438 30.159374 65.33125 29.628124Q65.12813 29.096874 64.59688 28.784374Q64.08125 28.471874 63.378124 28.471874Q62.253124 28.471874 61.440624 29.190624Q60.628124 29.89375 60.628124 31.878124L60.628124 37.55L58.8625 37.55ZM68.55 38.409374L70.25313 38.659374Q70.3625 39.45625 70.84688 39.815624Q71.50313 40.3 72.64375 40.3Q73.8625 40.3 74.51875 39.815624Q75.19063 39.33125 75.425 38.45625Q75.56563 37.909374 75.55 36.190624Q74.39375 37.55 72.675 37.55Q70.53438 37.55 69.3625 36.003124Q68.19063 34.45625 68.19063 32.3Q68.19063 30.815624 68.72188 29.565624Q69.26875 28.315624 70.28438 27.628124Q71.31563 26.940624 72.69063 26.940624Q74.51875 26.940624 75.72188 28.425L75.72188 27.175L77.33125 27.175L77.33125 36.14375Q77.33125 38.565624 76.83125 39.565624Q76.34688 40.58125 75.26875 41.159374Q74.20625 41.753124 72.64375 41.753124Q70.8 41.753124 69.64375 40.925Q68.50313 40.096874 68.55 38.409374ZM70.00313 32.175Q70.00313 34.221874 70.81563 35.159374Q71.62813 36.096874 72.84688 36.096874Q74.05 36.096874 74.8625 35.159374Q75.69063 34.221874 75.69063 32.2375Q75.69063 30.33125 74.84688 29.3625Q74.00313 28.39375 72.81563 28.39375Q71.64375 28.39375 70.81563 29.346874Q70.00313 30.3 70.00313 32.175ZM96.31563 32.534374L98.20625 33.003124Q97.6125 35.346874 96.06563 36.58125Q94.51875 37.8 92.26875 37.8Q89.95625 37.8 88.50313 36.8625Q87.06563 35.909374 86.3 34.128124Q85.55 32.33125 85.55 30.284374Q85.55 28.05 86.39375 26.39375Q87.25313 24.721874 88.83125 23.8625Q90.40938 22.9875 92.3 22.9875Q94.45625 22.9875 95.90938 24.08125Q97.37813 25.175 97.95625 27.159374L96.09688 27.596874Q95.59688 26.034374 94.64375 25.33125Q93.70625 24.6125 92.26875 24.6125Q90.6125 24.6125 89.50313 25.409374Q88.39375 26.190624 87.94063 27.534374Q87.50313 28.8625 87.50313 30.26875Q87.50313 32.096874 88.03438 33.471874Q88.56563 34.83125 89.69063 35.503124Q90.81563 36.175 92.1125 36.175Q93.70625 36.175 94.81563 35.253124Q95.925 34.33125 96.31563 32.534374ZM99.8625 37.55L99.8625 23.2375L101.62813 23.2375L101.62813 28.3625Q102.8625 26.940624 104.7375 26.940624Q105.87813 26.940624 106.72188 27.39375Q107.58125 27.846874 107.94063 28.659374Q108.31563 29.45625 108.31563 30.971874L108.31563 37.55L106.56563 37.55L106.56563 30.971874Q106.56563 29.659374 105.9875 29.065624Q105.40938 28.45625 104.37813 28.45625Q103.59688 28.45625 102.89375 28.8625Q102.20625 29.26875 101.90938 29.971874Q101.62813 30.659374 101.62813 31.878124L101.62813 37.55L99.8625 37.55ZM109.84688 37.55L109.84688 27.175L111.425 27.175L111.425 28.753124Q112.03438 27.64375 112.55 27.3Q113.06563 26.940624 113.675 26.940624Q114.56563 26.940624 115.4875 27.503124L114.87813 29.14375Q114.2375 28.753124 113.59688 28.753124Q113.01875 28.753124 112.55 29.1125Q112.09688 29.45625 111.89375 30.065624Q111.6125 31.003124 111.6125 32.1125L111.6125 37.55L109.84688 37.55ZM116.22188 32.3625Q116.22188 29.4875 117.81563 28.096874Q119.15938 26.940624 121.08125 26.940624Q123.22188 26.940624 124.56563 28.346874Q125.925 29.753124 125.925 32.221874Q125.925 34.221874 125.33125 35.378124Q124.7375 36.51875 123.58125 37.159374Q122.44063 37.784374 121.08125 37.784374Q118.89375 37.784374 117.55 36.39375Q116.22188 34.9875 116.22188 32.3625ZM118.01875 32.3625Q118.01875 34.3625 118.87813 35.346874Q119.75313 36.33125 121.08125 36.33125Q122.39375 36.33125 123.25313 35.346874Q124.12813 34.346874 124.12813 32.3Q124.12813 30.378124 123.25313 29.39375Q122.37813 28.39375 121.08125 28.39375Q119.75313 28.39375 118.87813 29.39375Q118.01875 30.378124 118.01875 32.3625ZM127.8625 37.55L127.8625 27.175L129.44063 27.175L129.44063 28.628124Q129.925 27.878124 130.7375 27.409374Q131.55 26.940624 132.58125 26.940624Q133.7375 26.940624 134.47188 27.425Q135.20625 27.89375 135.51875 28.753124Q136.75313 26.940624 138.72188 26.940624Q140.26875 26.940624 141.09688 27.8Q141.925 28.659374 141.925 30.425L141.925 37.55L140.175 37.55L140.175 31.01875Q140.175 29.95625 140.00313 29.503124Q139.83125 29.034374 139.37813 28.753124Q138.94063 28.471874 138.33125 28.471874Q137.2375 28.471874 136.50313 29.20625Q135.78438 29.925 135.78438 31.51875L135.78438 37.55L134.03438 37.55L134.03438 30.815624Q134.03438 29.64375 133.59688 29.065624Q133.175 28.471874 132.19063 28.471874Q131.45625 28.471874 130.81563 28.8625Q130.19063 29.253124 129.90938 30.003124Q129.62813 30.753124 129.62813 32.175L129.62813 37.55L127.8625 37.55ZM143.87813 25.253124L143.87813 23.2375L145.64375 23.2375L145.64375 25.253124L143.87813 25.253124ZM143.87813 37.55L143.87813 27.175L145.64375 27.175L145.64375 37.55L143.87813 37.55ZM154.65938 37.55L154.65938 36.01875Q153.45625 37.784374 151.37813 37.784374Q150.45625 37.784374 149.65938 37.440624Q148.8625 37.08125 148.47188 36.55Q148.09688 36.01875 147.94063 35.2375Q147.83125 34.721874 147.83125 33.596874L147.83125 27.175L149.58125 27.175L149.58125 32.925Q149.58125 34.3 149.69063 34.784374Q149.8625 35.471874 150.39375 35.878124Q150.94063 36.26875 151.72188 36.26875Q152.51875 36.26875 153.20625 35.8625Q153.90938 35.45625 154.19063 34.76875Q154.4875 34.065624 154.4875 32.7375L154.4875 27.175L156.2375 27.175L156.2375 37.55L154.65938 37.55ZM157.8625 37.55L157.8625 27.175L159.44063 27.175L159.44063 28.628124Q159.925 27.878124 160.7375 27.409374Q161.55 26.940624 162.58125 26.940624Q163.7375 26.940624 164.47188 27.425Q165.20625 27.89375 165.51875 28.753124Q166.75313 26.940624 168.72188 26.940624Q170.26875 26.940624 171.09688 27.8Q171.925 28.659374 171.925 30.425L171.925 37.55L170.175 37.55L170.175 31.01875Q170.175 29.95625 170.00313 29.503124Q169.83125 29.034374 169.37813 28.753124Q168.94063 28.471874 168.33125 28.471874Q167.2375 28.471874 166.50313 29.20625Q165.78438 29.925 165.78438 31.51875L165.78438 37.55L164.03438 37.55L164.03438 30.815624Q164.03438 29.64375 163.59688 29.065624Q163.175 28.471874 162.19063 28.471874Q161.45625 28.471874 160.81563 28.8625Q160.19063 29.253124 159.90938 30.003124Q159.62813 30.753124 159.62813 32.175L159.62813 37.55L157.8625 37.55Z" fill-rule="nonzero"/></svg>