<svg version="1.1" viewBox="0.0 0.0 600.0 371.0" fill="none" stroke="none" stroke-linecap="square" stroke-miterlimit="10" width="600" height="371" xmlns:xlink="http://www.w3.org/1999/xlink" xmlns="http://www.w3.org/2000/svg"><path fill="#ffffff" d="M0 0L600.0 0L600.0 371.0L0 371.0L0 0Z" fill-rule="nonzero"/><path stroke="#333333" stroke-width="1.0" stroke-linecap="butt" d="M115.5 318.5L581.5 318.5" fill-rule="nonzero"/><path stroke="#cccccc" stroke-width="1.0" stroke-linecap="butt" d="M115.5 234.5L581.5 234.5" fill-rule="nonzero"/><path stroke="#cccccc" stroke-width="1.0" stroke-linecap="butt" d="M115.5 150.5L581.5 150.5" fill-rule="nonzero"/><path stroke="#cccccc" stroke-width="1.0" stroke-linecap="butt" d="M115.5 66.5L581.5 66.5" fill-rule="nonzero"/><clipPath id="id_0"><path d="M115.55 66.916664L581.45 66.916664L581.45 318.45L115.55 318.45L115.55 66.916664Z" clip-rule="nonzero"/></clipPath><path stroke="#000000" stroke-width="2.0" stroke-linecap="butt" stroke-opacity="0.0" clip-path="url(#id_0)" d="M254.0 318.0L164.0 318.0L164.0 81.0C164.0 79.89543 164.89543 79.0 166.0 79.0L252.0 79.0C253.10457 79.0 254.0 79.89543 254.0 81.0Z" fill-rule="nonzero"/><path fill="#4285f4" clip-path="url(#id_0)" d="M254.0 318.0L164.0 318.0L164.0 81.0C164.0 79.89543 164.89543 79.0 166.0 79.0L252.0 79.0C253.10457 79.0 254.0 79.89543 254.0 81.0Z" fill-rule="nonzero"/><path stroke="#000000" stroke-width="2.0" stroke-linecap="butt" stroke-opacity="0.0" clip-path="url(#id_0)" d="M394.0 318.0L304.0 318.0L304.0 134.0C304.0 132.89543 304.89542 132.0 306.0 132.0L392.0 132.0C393.10458 132.0 394.0 132.89543 394.0 134.0Z" fill-rule="nonzero"/><path fill="#ea4335" clip-path="url(#id_0)" d="M394.0 318.0L304.0 318.0L304.0 134.0C304.0 132.89543 304.89542 132.0 306.0 132.0L392.0 132.0C393.10458 132.0 394.0 132.89543 394.0 134.0Z" fill-rule="nonzero"/><path stroke="#000000" stroke-width="2.0" stroke-linecap="butt" stroke-opacity="0.0" clip-path="url(#id_0)" d="M533.0 318.0L443.0 318.0L443.0 211.0C443.0 209.89543 443.89542 209.0 445.0 209.0L531.0 209.0C532.10455 209.0 533.0 209.89543 533.0 211.0Z" fill-rule="nonzero"/><path fill="#34a853" clip-path="url(#id_0)" d="M533.0 318.0L443.0 318.0L443.0 211.0C443.0 209.89543 443.89542 209.0 445.0 209.0L531.0 209.0C532.10455 209.0 533.0 209.89543 533.0 211.0Z" fill-rule="nonzero"/><path fill="#000000" d="M32.95626 240.77708L32.80001 238.99583Q33.86251 238.87083 34.55001 238.41771Q35.23751 237.94896 35.67501 236.98021Q36.096886 235.99583 36.096886 234.76146Q36.096886 233.68333 35.784386 232.85521Q35.45626 232.02708 34.89376 231.62083Q34.33126 231.21458 33.659386 231.21458Q32.98751 231.21458 32.48751 231.60521Q31.987513 231.99583 31.643763 232.88646Q31.409388 233.46458 30.940638 235.44896Q30.471888 237.41771 30.050013 238.19896Q29.518763 239.23021 28.721888 239.73021Q27.925013 240.23021 26.940638 240.23021Q25.846888 240.23021 24.909388 239.62083Q23.971888 239.01146 23.487513 237.82396Q22.987513 236.63646 22.987513 235.19896Q22.987513 233.60521 23.503138 232.38646Q24.018763 231.16771 25.018763 230.52708Q26.003138 229.87083 27.268763 229.82396L27.409388 231.63646Q26.050013 231.77708 25.362513 232.62083Q24.659388 233.46458 24.659388 235.12083Q24.659388 236.83958 25.300013 237.63646Q25.925013 238.41771 26.800013 238.41771Q27.581263 238.41771 28.081263 237.85521Q28.581263 237.30833 29.096888 234.99583Q29.612513 232.68333 30.003138 231.82396Q30.581263 230.57396 31.471888 229.98021Q32.346886 229.38646 33.503136 229.38646Q34.64376 229.38646 35.659386 230.04271Q36.67501 230.69896 37.23751 231.93333Q37.80001 233.15208 37.80001 234.68333Q37.80001 236.62083 37.23751 237.93333Q36.659386 239.24583 35.51876 239.99583Q34.378136 240.74583 32.95626 240.77708ZM34.20626 220.26146L34.440636 218.44896Q36.01876 218.87083 36.909386 220.04271Q37.784386 221.19896 37.784386 223.01146Q37.784386 225.27708 36.39376 226.62083Q34.98751 227.94896 32.45626 227.94896Q29.831263 227.94896 28.393763 226.60521Q26.940638 225.26146 26.940638 223.10521Q26.940638 221.02708 28.362513 219.71458Q29.768763 218.38646 32.346886 218.38646Q32.503136 218.38646 32.815636 218.40208L32.815636 226.13646Q34.51876 226.04271 35.42501 225.16771Q36.33126 224.29271 36.33126 222.99583Q36.33126 222.02708 35.83126 221.35521Q35.315636 220.66771 34.20626 220.26146ZM31.362513 226.04271L31.362513 220.24583Q30.065638 220.35521 29.409388 220.90208Q28.393763 221.74583 28.393763 223.08958Q28.393763 224.29271 29.206263 225.12083Q30.003138 225.94896 31.362513 226.04271ZM33.753136 209.58958L33.971886 207.87083Q35.76876 208.15208 36.784386 209.32396Q37.784386 210.48021 37.784386 212.18333Q37.784386 214.30833 36.39376 215.60521Q35.003136 216.90208 32.409386 216.90208Q30.721888 216.90208 29.471888 216.35521Q28.206263 215.79271 27.581263 214.65208Q26.940638 213.51146 26.940638 212.16771Q26.940638 210.48021 27.800013 209.41771Q28.659388 208.33958 30.221888 208.02708L30.487513 209.74583Q29.440638 209.98021 28.925013 210.60521Q28.393763 211.23021 28.393763 212.10521Q28.393763 213.43333 29.346888 214.26146Q30.300013 215.08958 32.346886 215.08958Q34.440636 215.08958 35.39376 214.29271Q36.33126 213.49583 36.33126 212.19896Q36.33126 211.16771 35.70626 210.48021Q35.065636 209.77708 33.753136 209.58958ZM32.36251 207.01146Q29.487513 207.01146 28.096888 205.41771Q26.940638 204.07396 26.940638 202.15208Q26.940638 200.01146 28.346888 198.66771Q29.753138 197.30833 32.221886 197.30833Q34.221886 197.30833 35.378136 197.90208Q36.51876 198.49583 37.159386 199.65208Q37.784386 200.79271 37.784386 202.15208Q37.784386 204.33958 36.39376 205.68333Q34.98751 207.01146 32.36251 207.01146ZM32.36251 205.21458Q34.36251 205.21458 35.346886 204.35521Q36.33126 203.48021 36.33126 202.15208Q36.33126 200.83958 35.346886 199.98021Q34.346886 199.10521 32.30001 199.10521Q30.378138 199.10521 29.393763 199.98021Q28.393763 200.85521 28.393763 202.15208Q28.393763 203.48021 29.393763 204.35521Q30.378138 205.21458 32.36251 205.21458ZM37.55001 195.37083L27.175013 195.37083L27.175013 193.77708L28.659388 193.77708Q26.940638 192.63646 26.940638 190.48021Q26.940638 189.54271 27.284388 188.76146Q27.612513 187.96458 28.159388 187.57396Q28.706263 187.18333 29.456263 187.02708Q29.956263 186.93333 31.175013 186.93333L37.55001 186.93333L37.55001 188.69896L31.237513 188.69896Q30.159388 188.69896 29.628138 188.90208Q29.096888 189.10521 28.784388 189.63646Q28.471888 190.15208 28.471888 190.85521Q28.471888 191.98021 29.190638 192.79271Q29.893763 193.60521 31.878138 193.60521L37.55001 193.60521L37.55001 195.37083ZM37.55001 178.63646L36.23751 178.63646Q37.784386 179.62083 37.784386 181.54271Q37.784386 182.77708 37.096886 183.82396Q36.409386 184.85521 35.190636 185.43333Q33.971886 185.99583 32.378136 185.99583Q30.815638 185.99583 29.550013 185.48021Q28.284388 184.96458 27.612513 183.93333Q26.940638 182.88646 26.940638 181.62083Q26.940638 180.68333 27.346888 179.94896Q27.737513 179.21458 28.362513 178.74583L23.237513 178.74583L23.237513 177.01146L37.55001 177.01146L37.55001 178.63646ZM32.378136 184.19896Q34.36251 184.19896 35.346886 183.35521Q36.33126 182.51146 36.33126 181.37083Q36.33126 180.21458 35.39376 179.41771Q34.45626 178.60521 32.51876 178.60521Q30.393763 178.60521 29.393763 179.43333Q28.393763 180.24583 28.393763 181.44896Q28.393763 182.62083 29.362513 183.41771Q30.315638 184.19896 32.378136 184.19896ZM34.45626 175.07396L34.17501 173.32396Q35.221886 173.18333 35.784386 172.51146Q36.33126 171.83958 36.33126 170.63646Q36.33126 169.43333 35.846886 168.85521Q35.346886 168.26146 34.690636 168.26146Q34.096886 168.26146 33.753136 168.77708Q33.51876 169.13646 33.159386 170.57396Q32.659386 172.51146 32.315636 173.26146Q31.956263 173.99583 31.331263 174.38646Q30.690638 174.77708 29.925013 174.77708Q29.237513 174.77708 28.643763 174.46458Q28.050013 174.13646 27.659388 173.58958Q27.362513 173.18333 27.159388 172.48021Q26.940638 171.76146 26.940638 170.94896Q26.940638 169.73021 27.300013 168.80833Q27.643763 167.88646 28.253138 167.44896Q28.846888 167.01146 29.846888 166.83958L30.081263 168.55833Q29.284388 168.68333 28.846888 169.24583Q28.393763 169.80833 28.393763 170.82396Q28.393763 172.04271 28.800013 172.55833Q29.190638 173.07396 29.721888 173.07396Q30.065638 173.07396 30.346888 172.85521Q30.628138 172.65208 30.815638 172.18333Q30.909388 171.91771 31.253138 170.63646Q31.753138 168.76146 32.08126 168.02708Q32.39376 167.29271 33.003136 166.87083Q33.596886 166.44896 34.503136 166.44896Q35.378136 166.44896 36.159386 166.96458Q36.940636 167.48021 37.36251 168.44896Q37.784386 169.41771 37.784386 170.63646Q37.784386 172.65208 36.940636 173.71458Q36.096886 174.77708 34.45626 175.07396Z" fill-rule="nonzero"/><path fill="#000000" d="M78.37813 318.3875Q78.37813 315.85626 78.89375 314.3094Q79.425 312.7469 80.45625 311.91876Q81.4875 311.075 83.05 311.075Q84.20625 311.075 85.06563 311.54376Q85.94063 311.9969 86.50313 312.8719Q87.06563 313.7469 87.39375 315.0125Q87.72188 316.2625 87.72188 318.3875Q87.72188 320.90314 87.19063 322.45Q86.675 323.9969 85.64375 324.85626Q84.62813 325.7 83.05 325.7Q80.97188 325.7 79.8 324.21564Q78.37813 322.41876 78.37813 318.3875ZM80.19063 318.3875Q80.19063 321.91876 81.00313 323.09064Q81.83125 324.2469 83.05 324.2469Q84.25313 324.2469 85.08125 323.075Q85.90938 321.90314 85.90938 318.3875Q85.90938 314.85626 85.08125 313.7Q84.25313 312.52814 83.03438 312.52814Q81.81563 312.52814 81.09688 313.5594Q80.19063 314.85626 80.19063 318.3875ZM90.3625 325.45L90.3625 323.45L92.3625 323.45L92.3625 325.45L90.3625 325.45ZM95.37813 318.3875Q95.37813 315.85626 95.89375 314.3094Q96.425 312.7469 97.45625 311.91876Q98.4875 311.075 100.05 311.075Q101.20625 311.075 102.06563 311.54376Q102.94063 311.9969 103.50313 312.8719Q104.06563 313.7469 104.39375 315.0125Q104.72188 316.2625 104.72188 318.3875Q104.72188 320.90314 104.19063 322.45Q103.675 323.9969 102.64375 324.85626Q101.62813 325.7 100.05 325.7Q97.97188 325.7 96.8 324.21564Q95.37813 322.41876 95.37813 318.3875ZM97.19063 318.3875Q97.19063 321.91876 98.00313 323.09064Q98.83125 324.2469 100.05 324.2469Q101.25313 324.2469 102.08125 323.075Q102.90938 321.90314 102.90938 318.3875Q102.90938 314.85626 102.08125 313.7Q101.25313 312.52814 100.03438 312.52814Q98.81563 312.52814 98.09688 313.5594Q97.19063 314.85626 97.19063 318.3875Z" fill-rule="nonzero"/><path fill="#000000" d="M78.37813 234.54306Q78.37813 232.01181 78.89375 230.46494Q79.425 228.90244 80.45625 228.07431Q81.4875 227.23056 83.05 227.23056Q84.20625 227.23056 85.06563 227.69931Q85.94063 228.15244 86.50313 229.02744Q87.06563 229.90244 87.39375 231.16806Q87.72188 232.41806 87.72188 234.54306Q87.72188 237.05869 87.19063 238.60556Q86.675 240.15244 85.64375 241.01181Q84.62813 241.85556 83.05 241.85556Q80.97188 241.85556 79.8 240.37119Q78.37813 238.57431 78.37813 234.54306ZM80.19063 234.54306Q80.19063 238.07431 81.00313 239.24619Q81.83125 240.40244 83.05 240.40244Q84.25313 240.40244 85.08125 239.23056Q85.90938 238.05869 85.90938 234.54306Q85.90938 231.01181 85.08125 229.85556Q84.25313 228.68369 83.03438 228.68369Q81.81563 228.68369 81.09688 229.71494Q80.19063 231.01181 80.19063 234.54306ZM90.3625 241.60556L90.3625 239.60556L92.3625 239.60556L92.3625 241.60556L90.3625 241.60556ZM95.37813 237.85556L97.22188 237.69931Q97.425 239.04306 98.175 239.73056Q98.925 240.40244 99.9875 240.40244Q101.25313 240.40244 102.12813 239.44931Q103.00313 238.49619 103.00313 236.90244Q103.00313 235.40244 102.15938 234.54306Q101.31563 233.66806 99.95625 233.66806Q99.09688 233.66806 98.40938 234.05869Q97.7375 234.43369 97.34688 235.05869L95.69063 234.83994L97.08125 227.48056L104.20625 227.48056L104.20625 229.16806L98.4875 229.16806L97.72188 233.01181Q99.00313 232.10556 100.425 232.10556Q102.3 232.10556 103.58125 233.41806Q104.87813 234.71494 104.87813 236.74619Q104.87813 238.69931 103.7375 240.10556Q102.3625 241.85556 99.9875 241.85556Q98.03438 241.85556 96.78438 240.76181Q95.55 239.66806 95.37813 237.85556Z" fill-rule="nonzero"/><path fill="#000000" d="M85.00313 157.76111L83.2375 157.76111L83.2375 146.55798Q82.6125 147.16736 81.58125 147.77673Q80.55 148.37048 79.72188 148.68298L79.72188 146.97986Q81.20625 146.29236 82.3 145.30798Q83.40938 144.30798 83.8625 143.38611L85.00313 143.38611L85.00313 157.76111ZM90.3625 157.76111L90.3625 155.76111L92.3625 155.76111L92.3625 157.76111L90.3625 157.76111ZM95.37813 150.69861Q95.37813 148.16736 95.89375 146.62048Q96.425 145.05798 97.45625 144.22986Q98.4875 143.38611 100.05 143.38611Q101.20625 143.38611 102.06563 143.85486Q102.94063 144.30798 103.50313 145.18298Q104.06563 146.05798 104.39375 147.32361Q104.72188 148.57361 104.72188 150.69861Q104.72188 153.21423 104.19063 154.76111Q103.675 156.30798 102.64375 157.16736Q101.62813 158.01111 100.05 158.01111Q97.97188 158.01111 96.8 156.52673Q95.37813 154.72986 95.37813 150.69861ZM97.19063 150.69861Q97.19063 154.22986 98.00313 155.40173Q98.83125 156.55798 100.05 156.55798Q101.25313 156.55798 102.08125 155.38611Q102.90938 154.21423 102.90938 150.69861Q102.90938 147.16736 102.08125 146.01111Q101.25313 144.83923 100.03438 144.83923Q98.81563 144.83923 98.09688 145.87048Q97.19063 147.16736 97.19063 150.69861Z" fill-rule="nonzero"/><path fill="#000000" d="M85.00313 73.916664L83.2375 73.916664L83.2375 62.71354Q82.6125 63.322914 81.58125 63.93229Q80.55 64.52604 79.72188 64.83854L79.72188 63.135414Q81.20625 62.447914 82.3 61.46354Q83.40938 60.46354 83.8625 59.541664L85.00313 59.541664L85.00313 73.916664ZM90.3625 73.916664L90.3625 71.916664L92.3625 71.916664L92.3625 73.916664L90.3625 73.916664ZM95.37813 70.166664L97.22188 70.010414Q97.425 71.354164 98.175 72.041664Q98.925 72.71354 99.9875 72.71354Q101.25313 72.71354 102.12813 71.760414Q103.00313 70.80729 103.00313 69.21354Q103.00313 67.71354 102.15938 66.854164Q101.31563 65.979164 99.95625 65.979164Q99.09688 65.979164 98.40938 66.36979Q97.7375 66.74479 97.34688 67.36979L95.69063 67.15104L97.08125 59.791664L104.20625 59.791664L104.20625 61.479164L98.4875 61.479164L97.72188 65.322914Q99.00313 64.416664 100.425 64.416664Q102.3 64.416664 103.58125 65.729164Q104.87813 67.02604 104.87813 69.05729Q104.87813 71.010414 103.7375 72.416664Q102.3625 74.166664 99.9875 74.166664Q98.03438 74.166664 96.78438 73.072914Q95.55 71.979164 95.37813 70.166664Z" fill-rule="nonzero"/><path fill="#000000" d="M201.20662 347.45L201.20662 333.1375L202.95662 333.1375L202.95662 347.45L201.20662 347.45ZM205.20662 347.45L205.20662 333.1375L206.95662 333.1375L206.95662 347.45L205.20662 347.45ZM215.97224 347.45L215.97224 346.1375Q214.98787 347.6844 213.066 347.6844Q211.83162 347.6844 210.78474 346.9969Q209.7535 346.3094 209.17537 345.09064Q208.61287 343.8719 208.61287 342.27814Q208.61287 340.71564 209.1285 339.45Q209.64412 338.1844 210.67537 337.5125Q211.72224 336.84064 212.98787 336.84064Q213.92537 336.84064 214.65974 337.2469Q215.39412 337.6375 215.86287 338.2625L215.86287 333.1375L217.59724 333.1375L217.59724 347.45L215.97224 347.45ZM210.40974 342.27814Q210.40974 344.2625 211.2535 345.2469Q212.09724 346.23126 213.23787 346.23126Q214.39412 346.23126 215.191 345.29376Q216.0035 344.35626 216.0035 342.41876Q216.0035 340.29376 215.17537 339.29376Q214.36287 338.29376 213.15974 338.29376Q211.98787 338.29376 211.191 339.2625Q210.40974 340.21564 210.40974 342.27814Z" fill-rule="nonzero"/><path fill="#000000" d="M328.8125 347.45L328.8125 337.075L330.39062 337.075L330.39062 338.52814Q330.875 337.77814 331.6875 337.3094Q332.5 336.84064 333.53125 336.84064Q334.6875 336.84064 335.42188 337.325Q336.15625 337.79376 336.46875 338.65314Q337.70312 336.84064 339.67188 336.84064Q341.21875 336.84064 342.04688 337.7Q342.875 338.5594 342.875 340.325L342.875 347.45L341.125 347.45L341.125 340.91876Q341.125 339.85626 340.95312 339.40314Q340.78125 338.9344 340.32812 338.65314Q339.89062 338.3719 339.28125 338.3719Q338.1875 338.3719 337.45312 339.10626Q336.73438 339.825 336.73438 341.41876L336.73438 347.45L334.98438 347.45L334.98438 340.71564Q334.98438 339.54376 334.54688 338.96564Q334.125 338.3719 333.14062 338.3719Q332.40625 338.3719 331.76562 338.7625Q331.14062 339.15314 330.85938 339.90314Q330.57812 340.65314 330.57812 342.075L330.57812 347.45L328.8125 347.45ZM344.17188 342.2625Q344.17188 339.3875 345.76562 337.9969Q347.10938 336.84064 349.03125 336.84064Q351.17188 336.84064 352.51562 338.2469Q353.875 339.65314 353.875 342.1219Q353.875 344.1219 353.28125 345.27814Q352.6875 346.41876 351.53125 347.0594Q350.39062 347.6844 349.03125 347.6844Q346.84375 347.6844 345.5 346.29376Q344.17188 344.8875 344.17188 342.2625ZM345.96875 342.2625Q345.96875 344.2625 346.82812 345.2469Q347.70312 346.23126 349.03125 346.23126Q350.34375 346.23126 351.20312 345.2469Q352.07812 344.2469 352.07812 342.2Q352.07812 340.27814 351.20312 339.29376Q350.32812 338.29376 349.03125 338.29376Q347.70312 338.29376 346.82812 339.29376Q345.96875 340.27814 345.96875 342.2625ZM355.78125 347.45L355.78125 333.1375L357.53125 333.1375L357.53125 347.45L355.78125 347.45ZM366.54688 347.45L366.54688 346.1375Q365.5625 347.6844 363.64062 347.6844Q362.40625 347.6844 361.35938 346.9969Q360.32812 346.3094 359.75 345.09064Q359.1875 343.8719 359.1875 342.27814Q359.1875 340.71564 359.70312 339.45Q360.21875 338.1844 361.25 337.5125Q362.29688 336.84064 363.5625 336.84064Q364.5 336.84064 365.23438 337.2469Q365.96875 337.6375 366.4375 338.2625L366.4375 333.1375L368.17188 333.1375L368.17188 347.45L366.54688 347.45ZM360.98438 342.27814Q360.98438 344.2625 361.82812 345.2469Q362.67188 346.23126 363.8125 346.23126Q364.96875 346.23126 365.76562 345.29376Q366.57812 344.35626 366.57812 342.41876Q366.57812 340.29376 365.75 339.29376Q364.9375 338.29376 363.73438 338.29376Q362.5625 338.29376 361.76562 339.2625Q360.98438 340.21564 360.98438 342.27814Z" fill-rule="nonzero"/><path fill="#000000" d="M473.809 347.45L470.63712 337.075L472.44962 337.075L474.10587 343.0594L474.71524 345.29376Q474.76212 345.1219 475.2465 343.15314L476.90274 337.075L478.71524 337.075L480.26212 343.09064L480.77774 345.075L481.3715 343.075L483.15274 337.075L484.85587 337.075L481.6215 347.45L479.79337 347.45L478.13712 341.23126L477.7465 339.46564L475.63712 347.45L473.809 347.45ZM486.90274 335.15314L486.90274 333.1375L488.66837 333.1375L488.66837 335.15314L486.90274 335.15314ZM486.90274 347.45L486.90274 337.075L488.66837 337.075L488.66837 347.45L486.90274 347.45ZM490.85587 347.45L490.85587 333.1375L492.60587 333.1375L492.60587 347.45L490.85587 347.45ZM501.6215 347.45L501.6215 346.1375Q500.63712 347.6844 498.71524 347.6844Q497.48087 347.6844 496.434 346.9969Q495.40274 346.3094 494.82462 345.09064Q494.26212 343.8719 494.26212 342.27814Q494.26212 340.71564 494.77774 339.45Q495.29337 338.1844 496.32462 337.5125Q497.3715 336.84064 498.63712 336.84064Q499.57462 336.84064 500.309 337.2469Q501.04337 337.6375 501.51212 338.2625L501.51212 333.1375L503.2465 333.1375L503.2465 347.45L501.6215 347.45ZM496.059 342.27814Q496.059 344.2625 496.90274 345.2469Q497.7465 346.23126 498.88712 346.23126Q500.04337 346.23126 500.84024 345.29376Q501.65274 344.35626 501.65274 342.41876Q501.65274 340.29376 500.82462 339.29376Q500.01212 338.29376 498.809 338.29376Q497.63712 338.29376 496.84024 339.2625Q496.059 340.21564 496.059 342.27814Z" fill-rule="nonzero"/><path fill="#757575" d="M19.83125 37.55L19.83125 23.2375L21.58125 23.2375L21.58125 37.55L19.83125 37.55ZM23.878124 25.253124L23.878124 23.2375L25.64375 23.2375L25.64375 25.253124L23.878124 25.253124ZM23.878124 37.55L23.878124 27.175L25.64375 27.175L25.64375 37.55L23.878124 37.55ZM29.4875 37.55L27.8625 37.55L27.8625 23.2375L29.6125 23.2375L29.6125 28.346874Q30.7375 26.940624 32.45625 26.940624Q33.409374 26.940624 34.26875 27.33125Q35.128124 27.721874 35.675 28.425Q36.221874 29.1125 36.534374 30.096874Q36.846874 31.08125 36.846874 32.20625Q36.846874 34.878124 35.534374 36.33125Q34.221874 37.784374 32.378124 37.784374Q30.534374 37.784374 29.4875 36.253124L29.4875 37.55ZM29.471874 32.284374Q29.471874 34.14375 29.971874 34.9875Q30.815624 36.33125 32.221874 36.33125Q33.378124 36.33125 34.20625 35.33125Q35.05 34.33125 35.05 32.346874Q35.05 30.315624 34.2375 29.3625Q33.440624 28.39375 32.3 28.39375Q31.14375 28.39375 30.3 29.39375Q29.471874 30.39375 29.471874 32.284374ZM38.846874 37.55L38.846874 27.175L40.425 27.175L40.425 28.753124Q41.034374 27.64375 41.55 27.3Q42.065624 26.940624 42.675 26.940624Q43.565624 26.940624 44.4875 27.503124L43.878124 29.14375Q43.2375 28.753124 42.596874 28.753124Q42.01875 28.753124 41.55 29.1125Q41.096874 29.45625 40.89375 30.065624Q40.6125 31.003124 40.6125 32.1125L40.6125 37.55L38.846874 37.55ZM52.659374 37.55L52.659374 36.01875Q51.45625 37.784374 49.378124 37.784374Q48.45625 37.784374 47.659374 37.440624Q46.8625 37.08125 46.471874 36.55Q46.096874 36.01875 45.940624 35.2375Q45.83125 34.721874 45.83125 33.596874L45.83125 27.175L47.58125 27.175L47.58125 32.925Q47.58125 34.3 47.690624 34.784374Q47.8625 35.471874 48.39375 35.878124Q48.940624 36.26875 49.721874 36.26875Q50.51875 36.26875 51.20625 35.8625Q51.909374 35.45625 52.190624 34.76875Q52.4875 34.065624 52.4875 32.7375L52.4875 27.175L54.2375 27.175L54.2375 37.55L52.659374 37.55ZM55.159374 34.45625L56.909374 34.175Q57.05 35.221874 57.721874 35.784374Q58.39375 36.33125 59.596874 36.33125Q60.8 36.33125 61.378124 35.846874Q61.971874 35.346874 61.971874 34.690624Q61.971874 34.096874 61.45625 33.753124Q61.096874 33.51875 59.659374 33.159374Q57.721874 32.659374 56.971874 32.315624Q56.2375 31.95625 55.846874 31.33125Q55.45625 30.690624 55.45625 29.925Q55.45625 29.2375 55.76875 28.64375Q56.096874 28.05 56.64375 27.659374Q57.05 27.3625 57.753124 27.159374Q58.471874 26.940624 59.284374 26.940624Q60.503124 26.940624 61.425 27.3Q62.346874 27.64375 62.784374 28.253124Q63.221874 28.846874 63.39375 29.846874L61.675 30.08125Q61.55 29.284374 60.9875 28.846874Q60.425 28.39375 59.409374 28.39375Q58.190624 28.39375 57.675 28.8Q57.159374 29.190624 57.159374 29.721874Q57.159374 30.065624 57.378124 30.346874Q57.58125 30.628124 58.05 30.815624Q58.315624 30.909374 59.596874 31.253124Q61.471874 31.753124 62.20625 32.08125Q62.940624 32.39375 63.3625 33.003124Q63.784374 33.596874 63.784374 34.503124Q63.784374 35.378124 63.26875 36.159374Q62.753124 36.940624 61.784374 37.3625Q60.815624 37.784374 59.596874 37.784374Q57.58125 37.784374 56.51875 36.940624Q55.45625 36.096874 55.159374 34.45625ZM69.70625 35.971874L69.95625 37.534374Q69.22188 37.690624 68.62813 37.690624Q67.675 37.690624 67.14375 37.39375Q66.62813 37.08125 66.40938 36.596874Q66.19063 36.096874 66.19063 34.51875L66.19063 28.55L64.90938 28.55L64.90938 27.175L66.19063 27.175L66.19063 24.6125L67.94063 23.55L67.94063 27.175L69.70625 27.175L69.70625 28.55L67.94063 28.55L67.94063 34.6125Q67.94063 35.3625 68.03438 35.58125Q68.12813 35.784374 68.33125 35.925Q68.55 36.05 68.94063 36.05Q69.22188 36.05 69.70625 35.971874ZM78.64375 33.753124L80.3625 33.971874Q80.08125 35.76875 78.90938 36.784374Q77.75313 37.784374 76.05 37.784374Q73.925 37.784374 72.62813 36.39375Q71.33125 35.003124 71.33125 32.409374Q71.33125 30.721874 71.87813 29.471874Q72.44063 28.20625 73.58125 27.58125Q74.72188 26.940624 76.06563 26.940624Q77.75313 26.940624 78.81563 27.8Q79.89375 28.659374 80.20625 30.221874L78.4875 30.4875Q78.25313 29.440624 77.62813 28.925Q77.00313 28.39375 76.12813 28.39375Q74.8 28.39375 73.97188 29.346874Q73.14375 30.3 73.14375 32.346874Q73.14375 34.440624 73.94063 35.39375Q74.7375 36.33125 76.03438 36.33125Q77.06563 36.33125 77.75313 35.70625Q78.45625 35.065624 78.64375 33.753124ZM81.19063 33.253124L81.19063 31.4875L86.58125 31.4875L86.58125 33.253124L81.19063 33.253124ZM95.59688 37.55L95.59688 36.2375Q94.6125 37.784374 92.69063 37.784374Q91.45625 37.784374 90.40938 37.096874Q89.37813 36.409374 88.8 35.190624Q88.2375 33.971874 88.2375 32.378124Q88.2375 30.815624 88.75313 29.55Q89.26875 28.284374 90.3 27.6125Q91.34688 26.940624 92.6125 26.940624Q93.55 26.940624 94.28438 27.346874Q95.01875 27.7375 95.4875 28.3625L95.4875 23.2375L97.22188 23.2375L97.22188 37.55L95.59688 37.55ZM90.03438 32.378124Q90.03438 34.3625 90.87813 35.346874Q91.72188 36.33125 92.8625 36.33125Q94.01875 36.33125 94.81563 35.39375Q95.62813 34.45625 95.62813 32.51875Q95.62813 30.39375 94.8 29.39375Q93.9875 28.39375 92.78438 28.39375Q91.6125 28.39375 90.81563 29.3625Q90.03438 30.315624 90.03438 32.378124ZM99.84688 37.55L99.84688 27.175L101.425 27.175L101.425 28.753124Q102.03438 27.64375 102.55 27.3Q103.06563 26.940624 103.675 26.940624Q104.56563 26.940624 105.4875 27.503124L104.87813 29.14375Q104.2375 28.753124 103.59688 28.753124Q103.01875 28.753124 102.55 29.1125Q102.09688 29.45625 101.89375 30.065624Q101.6125 31.003124 101.6125 32.1125L101.6125 37.55L99.84688 37.55ZM106.87813 25.253124L106.87813 23.2375L108.64375 23.2375L108.64375 25.253124L106.87813 25.253124ZM106.87813 37.55L106.87813 27.175L108.64375 27.175L108.64375 37.55L106.87813 37.55ZM113.75313 37.55L109.8 27.175L111.65938 27.175L113.89375 33.39375Q114.25313 34.39375 114.55 35.471874Q114.78438 34.659374 115.20625 33.503124L117.50313 27.175L119.31563 27.175L115.39375 37.55L113.75313 37.55ZM126.97188 34.20625L128.78438 34.440624Q128.3625 36.01875 127.19063 36.909374Q126.03438 37.784374 124.22188 37.784374Q121.95625 37.784374 120.6125 36.39375Q119.28438 34.9875 119.28438 32.45625Q119.28438 29.83125 120.62813 28.39375Q121.97188 26.940624 124.12813 26.940624Q126.20625 26.940624 127.51875 28.3625Q128.84688 29.76875 128.84688 32.346874Q128.84688 32.503124 128.83125 32.815624L121.09688 32.815624Q121.19063 34.51875 122.06563 35.425Q122.94063 36.33125 124.2375 36.33125Q125.20625 36.33125 125.87813 35.83125Q126.56563 35.315624 126.97188 34.20625ZM121.19063 31.3625L126.9875 31.3625Q126.87813 30.065624 126.33125 29.409374Q125.4875 28.39375 124.14375 28.39375Q122.94063 28.39375 122.1125 29.20625Q121.28438 30.003124 121.19063 31.3625ZM130.84688 37.55L130.84688 27.175L132.425 27.175L132.425 28.753124Q133.03438 27.64375 133.55 27.3Q134.06563 26.940624 134.675 26.940624Q135.56563 26.940624 136.4875 27.503124L135.87813 29.14375Q135.2375 28.753124 134.59688 28.753124Q134.01875 28.753124 133.55 29.1125Q133.09688 29.45625 132.89375 30.065624Q132.6125 31.003124 132.6125 32.1125L132.6125 37.55L130.84688 37.55Z" fill-rule="nonzero"/></svg>